G04*
G04 #@! TF.GenerationSoftware,Altium Limited,Altium Designer,20.0.2 (26)*
G04*
G04 Layer_Color=2752767*
%FSLAX24Y24*%
%MOIN*%
G70*
G01*
G75*
%ADD73C,0.0020*%
%ADD74C,0.0027*%
D73*
X1495Y1495D02*
Y1655D01*
X1655D01*
Y1495D01*
X1495D01*
X29841Y1495D02*
Y1655D01*
X30001D01*
Y1495D01*
X29841D01*
Y14093D02*
Y14253D01*
X30001D01*
Y14093D01*
X29841D01*
X1495D02*
Y14253D01*
X1655D01*
Y14093D01*
X1495D01*
X14670Y12580D02*
X14590Y12740D01*
X14750D01*
X14670Y12580D01*
X13670D02*
X13590Y12740D01*
X13750D01*
X13670Y12580D01*
X26536Y13570D02*
X26576Y13610D01*
X26616D01*
X26576Y13650D01*
X26616Y13690D01*
X26576D01*
X26536Y13730D01*
X26496Y13690D01*
X26456D01*
X26496Y13650D01*
X26456Y13610D01*
X26496D01*
X26536Y13570D01*
X25552D02*
X25591Y13610D01*
X25631D01*
X25591Y13650D01*
X25631Y13690D01*
X25591D01*
X25552Y13730D01*
X25512Y13690D01*
X25471D01*
X25512Y13650D01*
X25471Y13610D01*
X25512D01*
X25552Y13570D01*
X27520D02*
X27560Y13610D01*
X27600D01*
X27560Y13650D01*
X27600Y13690D01*
X27560D01*
X27520Y13730D01*
X27480Y13690D01*
X27440D01*
X27480Y13650D01*
X27440Y13610D01*
X27480D01*
X27520Y13570D01*
X5000Y10258D02*
X5040Y10338D01*
X5000Y10418D01*
X5080Y10378D01*
X5160Y10418D01*
X5120Y10338D01*
X5160Y10258D01*
X5080Y10298D01*
X5000Y10258D01*
Y12620D02*
X5040Y12700D01*
X5000Y12780D01*
X5080Y12740D01*
X5160Y12780D01*
X5120Y12700D01*
X5160Y12620D01*
X5080Y12660D01*
X5000Y12620D01*
X3209Y11282D02*
Y11242D01*
X3289D01*
Y11282D01*
X3329D01*
Y11362D01*
X3289D01*
Y11402D01*
X3209D01*
Y11362D01*
X3169D01*
Y11282D01*
X3209D01*
X17020Y13390D02*
X17060D01*
X17100Y13430D01*
X17140Y13390D01*
X17180D01*
Y13430D01*
X17140Y13470D01*
X17180Y13510D01*
Y13550D01*
X17140D01*
X17100Y13510D01*
X17060Y13550D01*
X17020D01*
Y13510D01*
X17060Y13470D01*
X17020Y13430D01*
Y13390D01*
X18920D02*
X18960D01*
X19000Y13430D01*
X19040Y13390D01*
X19080D01*
Y13430D01*
X19040Y13470D01*
X19080Y13510D01*
Y13550D01*
X19040D01*
X19000Y13510D01*
X18960Y13550D01*
X18920D01*
Y13510D01*
X18960Y13470D01*
X18920Y13430D01*
Y13390D01*
X20820D02*
X20860D01*
X20900Y13430D01*
X20940Y13390D01*
X20980D01*
Y13430D01*
X20940Y13470D01*
X20980Y13510D01*
Y13550D01*
X20940D01*
X20900Y13510D01*
X20860Y13550D01*
X20820D01*
Y13510D01*
X20860Y13470D01*
X20820Y13430D01*
Y13390D01*
X8650Y14440D02*
X8730Y14520D01*
X8810Y14440D01*
X8730Y14360D01*
X8650Y14440D01*
X10650D02*
X10730Y14520D01*
X10810Y14440D01*
X10730Y14360D01*
X10650Y14440D01*
X3700Y7250D02*
Y7410D01*
X3860D01*
Y7250D01*
X3700D01*
X3740Y7290D02*
Y7370D01*
X3820D01*
Y7290D01*
X3740D01*
X4100Y7250D02*
Y7410D01*
X4260D01*
Y7250D01*
X4100D01*
X4140Y7290D02*
Y7370D01*
X4220D01*
Y7290D01*
X4140D01*
X4500Y7250D02*
Y7410D01*
X4660D01*
Y7250D01*
X4500D01*
X4540Y7290D02*
Y7370D01*
X4620D01*
Y7290D01*
X4540D01*
X3700Y7550D02*
Y7710D01*
X3860D01*
Y7550D01*
X3700D01*
X3740Y7590D02*
Y7670D01*
X3820D01*
Y7590D01*
X3740D01*
X4100Y7550D02*
Y7710D01*
X4260D01*
Y7550D01*
X4100D01*
X4140Y7590D02*
Y7670D01*
X4220D01*
Y7590D01*
X4140D01*
X4500Y7550D02*
Y7710D01*
X4660D01*
Y7550D01*
X4500D01*
X4540Y7590D02*
Y7670D01*
X4620D01*
Y7590D01*
X4540D01*
X4500Y7850D02*
Y8010D01*
X4660D01*
Y7850D01*
X4500D01*
X4540Y7890D02*
Y7970D01*
X4620D01*
Y7890D01*
X4540D01*
X4100Y7850D02*
Y8010D01*
X4260D01*
Y7850D01*
X4100D01*
X4140Y7890D02*
Y7970D01*
X4220D01*
Y7890D01*
X4140D01*
X3700Y7850D02*
Y8010D01*
X3860D01*
Y7850D01*
X3700D01*
X3740Y7890D02*
Y7970D01*
X3820D01*
Y7890D01*
X3740D01*
X11150Y9190D02*
Y9350D01*
X11310D01*
Y9190D01*
X11150D01*
X11190Y9230D02*
Y9310D01*
X11270D01*
Y9230D01*
X11190D01*
X21730Y8710D02*
Y8870D01*
X21890D01*
Y8710D01*
X21730D01*
X21770Y8750D02*
Y8830D01*
X21850D01*
Y8750D01*
X21770D01*
X22045Y8710D02*
Y8870D01*
X22205D01*
Y8710D01*
X22045D01*
X22085Y8750D02*
Y8830D01*
X22165D01*
Y8750D01*
X22085D01*
X22360Y8710D02*
Y8870D01*
X22520D01*
Y8710D01*
X22360D01*
X22400Y8750D02*
Y8830D01*
X22480D01*
Y8750D01*
X22400D01*
X21740Y9270D02*
Y9430D01*
X21900D01*
Y9270D01*
X21740D01*
X21780Y9310D02*
Y9390D01*
X21860D01*
Y9310D01*
X21780D01*
X22055Y9270D02*
Y9430D01*
X22215D01*
Y9270D01*
X22055D01*
X22095Y9310D02*
Y9390D01*
X22175D01*
Y9310D01*
X22095D01*
X22370Y9270D02*
Y9430D01*
X22530D01*
Y9270D01*
X22370D01*
X22410Y9310D02*
Y9390D01*
X22490D01*
Y9310D01*
X22410D01*
X21740Y8990D02*
Y9150D01*
X21900D01*
Y8990D01*
X21740D01*
X21780Y9030D02*
Y9110D01*
X21860D01*
Y9030D01*
X21780D01*
X22045Y8990D02*
Y9150D01*
X22205D01*
Y8990D01*
X22045D01*
X22085Y9030D02*
Y9110D01*
X22165D01*
Y9030D01*
X22085D01*
X22350Y8990D02*
Y9150D01*
X22510D01*
Y8990D01*
X22350D01*
X22390Y9030D02*
Y9110D01*
X22470D01*
Y9030D01*
X22390D01*
X22370Y9530D02*
Y9690D01*
X22530D01*
Y9530D01*
X22370D01*
X22410Y9570D02*
Y9650D01*
X22490D01*
Y9570D01*
X22410D01*
X22065Y9530D02*
Y9690D01*
X22225D01*
Y9530D01*
X22065D01*
X22105Y9570D02*
Y9650D01*
X22185D01*
Y9570D01*
X22105D01*
X21760Y9530D02*
Y9690D01*
X21920D01*
Y9530D01*
X21760D01*
X21800Y9570D02*
Y9650D01*
X21880D01*
Y9570D01*
X21800D01*
X22390Y9810D02*
Y9970D01*
X22550D01*
Y9810D01*
X22390D01*
X22430Y9850D02*
Y9930D01*
X22510D01*
Y9850D01*
X22430D01*
X22075Y9810D02*
Y9970D01*
X22235D01*
Y9810D01*
X22075D01*
X22115Y9850D02*
Y9930D01*
X22195D01*
Y9850D01*
X22115D01*
X21760Y9810D02*
Y9970D01*
X21920D01*
Y9810D01*
X21760D01*
X21800Y9850D02*
Y9930D01*
X21880D01*
Y9850D01*
X21800D01*
X11150Y8630D02*
Y8790D01*
X11310D01*
Y8630D01*
X11150D01*
X11190Y8670D02*
Y8750D01*
X11270D01*
Y8670D01*
X11190D01*
X11460Y8630D02*
Y8790D01*
X11620D01*
Y8630D01*
X11460D01*
X11500Y8670D02*
Y8750D01*
X11580D01*
Y8670D01*
X11500D01*
X11770Y8630D02*
Y8790D01*
X11930D01*
Y8630D01*
X11770D01*
X11810Y8670D02*
Y8750D01*
X11890D01*
Y8670D01*
X11810D01*
X11460Y9200D02*
Y9360D01*
X11620D01*
Y9200D01*
X11460D01*
X11500Y9240D02*
Y9320D01*
X11580D01*
Y9240D01*
X11500D01*
X11770Y9200D02*
Y9360D01*
X11930D01*
Y9200D01*
X11770D01*
X11810Y9240D02*
Y9320D01*
X11890D01*
Y9240D01*
X11810D01*
X11140Y8920D02*
Y9080D01*
X11300D01*
Y8920D01*
X11140D01*
X11180Y8960D02*
Y9040D01*
X11260D01*
Y8960D01*
X11180D01*
X11455Y8920D02*
Y9080D01*
X11615D01*
Y8920D01*
X11455D01*
X11495Y8960D02*
Y9040D01*
X11575D01*
Y8960D01*
X11495D01*
X11770Y8920D02*
Y9080D01*
X11930D01*
Y8920D01*
X11770D01*
X11810Y8960D02*
Y9040D01*
X11890D01*
Y8960D01*
X11810D01*
X11780Y9470D02*
Y9630D01*
X11940D01*
Y9470D01*
X11780D01*
X11820Y9510D02*
Y9590D01*
X11900D01*
Y9510D01*
X11820D01*
X11465Y9470D02*
Y9630D01*
X11625D01*
Y9470D01*
X11465D01*
X11505Y9510D02*
Y9590D01*
X11585D01*
Y9510D01*
X11505D01*
X11150Y9470D02*
Y9630D01*
X11310D01*
Y9470D01*
X11150D01*
X11190Y9510D02*
Y9590D01*
X11270D01*
Y9510D01*
X11190D01*
X11780Y9750D02*
Y9910D01*
X11940D01*
Y9750D01*
X11780D01*
X11820Y9790D02*
Y9870D01*
X11900D01*
Y9790D01*
X11820D01*
X11470Y9750D02*
Y9910D01*
X11630D01*
Y9750D01*
X11470D01*
X11510Y9790D02*
Y9870D01*
X11590D01*
Y9790D01*
X11510D01*
X11160Y9750D02*
Y9910D01*
X11320D01*
Y9750D01*
X11160D01*
X11200Y9790D02*
Y9870D01*
X11280D01*
Y9790D01*
X11200D01*
X18760Y2230D02*
Y2390D01*
X18920D01*
Y2230D01*
X18760D01*
X18800Y2270D02*
Y2350D01*
X18880D01*
Y2270D01*
X18800D01*
X19292Y2230D02*
Y2390D01*
X19452D01*
Y2230D01*
X19292D01*
X19332Y2270D02*
Y2350D01*
X19412D01*
Y2270D01*
X19332D01*
X19824Y2230D02*
Y2390D01*
X19984D01*
Y2230D01*
X19824D01*
X19864Y2270D02*
Y2350D01*
X19944D01*
Y2270D01*
X19864D01*
X20356Y2230D02*
Y2390D01*
X20516D01*
Y2230D01*
X20356D01*
X20396Y2270D02*
Y2350D01*
X20476D01*
Y2270D01*
X20396D01*
X20888Y2230D02*
Y2390D01*
X21048D01*
Y2230D01*
X20888D01*
X20928Y2270D02*
Y2350D01*
X21008D01*
Y2270D01*
X20928D01*
X21420Y2230D02*
Y2390D01*
X21580D01*
Y2230D01*
X21420D01*
X21460Y2270D02*
Y2350D01*
X21540D01*
Y2270D01*
X21460D01*
X21410Y1870D02*
Y2030D01*
X21570D01*
Y1870D01*
X21410D01*
X21450Y1910D02*
Y1990D01*
X21530D01*
Y1910D01*
X21450D01*
X20878Y1870D02*
Y2030D01*
X21038D01*
Y1870D01*
X20878D01*
X20918Y1910D02*
Y1990D01*
X20998D01*
Y1910D01*
X20918D01*
X20346Y1870D02*
Y2030D01*
X20506D01*
Y1870D01*
X20346D01*
X20386Y1910D02*
Y1990D01*
X20466D01*
Y1910D01*
X20386D01*
X19814Y1870D02*
Y2030D01*
X19974D01*
Y1870D01*
X19814D01*
X19854Y1910D02*
Y1990D01*
X19934D01*
Y1910D01*
X19854D01*
X19282Y1870D02*
Y2030D01*
X19442D01*
Y1870D01*
X19282D01*
X19322Y1910D02*
Y1990D01*
X19402D01*
Y1910D01*
X19322D01*
X18750Y1870D02*
Y2030D01*
X18910D01*
Y1870D01*
X18750D01*
X18790Y1910D02*
Y1990D01*
X18870D01*
Y1910D01*
X18790D01*
X21410Y1520D02*
Y1680D01*
X21570D01*
Y1520D01*
X21410D01*
X21450Y1560D02*
Y1640D01*
X21530D01*
Y1560D01*
X21450D01*
X20878Y1520D02*
Y1680D01*
X21038D01*
Y1520D01*
X20878D01*
X20918Y1560D02*
Y1640D01*
X20998D01*
Y1560D01*
X20918D01*
X20346Y1520D02*
Y1680D01*
X20506D01*
Y1520D01*
X20346D01*
X20386Y1560D02*
Y1640D01*
X20466D01*
Y1560D01*
X20386D01*
X19814Y1520D02*
Y1680D01*
X19974D01*
Y1520D01*
X19814D01*
X19854Y1560D02*
Y1640D01*
X19934D01*
Y1560D01*
X19854D01*
X19282Y1520D02*
Y1680D01*
X19442D01*
Y1520D01*
X19282D01*
X19322Y1560D02*
Y1640D01*
X19402D01*
Y1560D01*
X19322D01*
X18750Y1520D02*
Y1680D01*
X18910D01*
Y1520D01*
X18750D01*
X18790Y1560D02*
Y1640D01*
X18870D01*
Y1560D01*
X18790D01*
X21410Y1140D02*
Y1300D01*
X21570D01*
Y1140D01*
X21410D01*
X21450Y1180D02*
Y1260D01*
X21530D01*
Y1180D01*
X21450D01*
X20878Y1140D02*
Y1300D01*
X21038D01*
Y1140D01*
X20878D01*
X20918Y1180D02*
Y1260D01*
X20998D01*
Y1180D01*
X20918D01*
X20346Y1140D02*
Y1300D01*
X20506D01*
Y1140D01*
X20346D01*
X20386Y1180D02*
Y1260D01*
X20466D01*
Y1180D01*
X20386D01*
X19814Y1140D02*
Y1300D01*
X19974D01*
Y1140D01*
X19814D01*
X19854Y1180D02*
Y1260D01*
X19934D01*
Y1180D01*
X19854D01*
X19282Y1140D02*
Y1300D01*
X19442D01*
Y1140D01*
X19282D01*
X19322Y1180D02*
Y1260D01*
X19402D01*
Y1180D01*
X19322D01*
X18750Y1140D02*
Y1300D01*
X18910D01*
Y1140D01*
X18750D01*
X18790Y1180D02*
Y1260D01*
X18870D01*
Y1180D01*
X18790D01*
X21420Y780D02*
Y940D01*
X21580D01*
Y780D01*
X21420D01*
X21460Y820D02*
Y900D01*
X21540D01*
Y820D01*
X21460D01*
X20888Y780D02*
Y940D01*
X21048D01*
Y780D01*
X20888D01*
X20928Y820D02*
Y900D01*
X21008D01*
Y820D01*
X20928D01*
X20356Y780D02*
Y940D01*
X20516D01*
Y780D01*
X20356D01*
X20396Y820D02*
Y900D01*
X20476D01*
Y820D01*
X20396D01*
X19824Y780D02*
Y940D01*
X19984D01*
Y780D01*
X19824D01*
X19864Y820D02*
Y900D01*
X19944D01*
Y820D01*
X19864D01*
X19292Y780D02*
Y940D01*
X19452D01*
Y780D01*
X19292D01*
X19332Y820D02*
Y900D01*
X19412D01*
Y820D01*
X19332D01*
X18760Y780D02*
Y940D01*
X18920D01*
Y780D01*
X18760D01*
X18800Y820D02*
Y900D01*
X18880D01*
Y820D01*
X18800D01*
X8060Y780D02*
Y940D01*
X8220D01*
Y780D01*
X8060D01*
X8100Y820D02*
Y900D01*
X8180D01*
Y820D01*
X8100D01*
X8592Y780D02*
Y940D01*
X8752D01*
Y780D01*
X8592D01*
X8632Y820D02*
Y900D01*
X8712D01*
Y820D01*
X8632D01*
X9124Y780D02*
Y940D01*
X9284D01*
Y780D01*
X9124D01*
X9164Y820D02*
Y900D01*
X9244D01*
Y820D01*
X9164D01*
X9656Y780D02*
Y940D01*
X9816D01*
Y780D01*
X9656D01*
X9696Y820D02*
Y900D01*
X9776D01*
Y820D01*
X9696D01*
X10188Y780D02*
Y940D01*
X10348D01*
Y780D01*
X10188D01*
X10228Y820D02*
Y900D01*
X10308D01*
Y820D01*
X10228D01*
X10720Y780D02*
Y940D01*
X10880D01*
Y780D01*
X10720D01*
X10760Y820D02*
Y900D01*
X10840D01*
Y820D01*
X10760D01*
X8050Y1140D02*
Y1300D01*
X8210D01*
Y1140D01*
X8050D01*
X8090Y1180D02*
Y1260D01*
X8170D01*
Y1180D01*
X8090D01*
X8582Y1140D02*
Y1300D01*
X8742D01*
Y1140D01*
X8582D01*
X8622Y1180D02*
Y1260D01*
X8702D01*
Y1180D01*
X8622D01*
X9114Y1140D02*
Y1300D01*
X9274D01*
Y1140D01*
X9114D01*
X9154Y1180D02*
Y1260D01*
X9234D01*
Y1180D01*
X9154D01*
X9646Y1140D02*
Y1300D01*
X9806D01*
Y1140D01*
X9646D01*
X9686Y1180D02*
Y1260D01*
X9766D01*
Y1180D01*
X9686D01*
X10178Y1140D02*
Y1300D01*
X10338D01*
Y1140D01*
X10178D01*
X10218Y1180D02*
Y1260D01*
X10298D01*
Y1180D01*
X10218D01*
X10710Y1140D02*
Y1300D01*
X10870D01*
Y1140D01*
X10710D01*
X10750Y1180D02*
Y1260D01*
X10830D01*
Y1180D01*
X10750D01*
X8050Y1520D02*
Y1680D01*
X8210D01*
Y1520D01*
X8050D01*
X8090Y1560D02*
Y1640D01*
X8170D01*
Y1560D01*
X8090D01*
X8582Y1520D02*
Y1680D01*
X8742D01*
Y1520D01*
X8582D01*
X8622Y1560D02*
Y1640D01*
X8702D01*
Y1560D01*
X8622D01*
X9114Y1520D02*
Y1680D01*
X9274D01*
Y1520D01*
X9114D01*
X9154Y1560D02*
Y1640D01*
X9234D01*
Y1560D01*
X9154D01*
X9646Y1520D02*
Y1680D01*
X9806D01*
Y1520D01*
X9646D01*
X9686Y1560D02*
Y1640D01*
X9766D01*
Y1560D01*
X9686D01*
X10178Y1520D02*
Y1680D01*
X10338D01*
Y1520D01*
X10178D01*
X10218Y1560D02*
Y1640D01*
X10298D01*
Y1560D01*
X10218D01*
X10710Y1520D02*
Y1680D01*
X10870D01*
Y1520D01*
X10710D01*
X10750Y1560D02*
Y1640D01*
X10830D01*
Y1560D01*
X10750D01*
X8050Y1870D02*
Y2030D01*
X8210D01*
Y1870D01*
X8050D01*
X8090Y1910D02*
Y1990D01*
X8170D01*
Y1910D01*
X8090D01*
X8582Y1870D02*
Y2030D01*
X8742D01*
Y1870D01*
X8582D01*
X8622Y1910D02*
Y1990D01*
X8702D01*
Y1910D01*
X8622D01*
X9114Y1870D02*
Y2030D01*
X9274D01*
Y1870D01*
X9114D01*
X9154Y1910D02*
Y1990D01*
X9234D01*
Y1910D01*
X9154D01*
X9646Y1870D02*
Y2030D01*
X9806D01*
Y1870D01*
X9646D01*
X9686Y1910D02*
Y1990D01*
X9766D01*
Y1910D01*
X9686D01*
X10178Y1870D02*
Y2030D01*
X10338D01*
Y1870D01*
X10178D01*
X10218Y1910D02*
Y1990D01*
X10298D01*
Y1910D01*
X10218D01*
X10710Y1870D02*
Y2030D01*
X10870D01*
Y1870D01*
X10710D01*
X10750Y1910D02*
Y1990D01*
X10830D01*
Y1910D01*
X10750D01*
X10720Y2230D02*
Y2390D01*
X10880D01*
Y2230D01*
X10720D01*
X10760Y2270D02*
Y2350D01*
X10840D01*
Y2270D01*
X10760D01*
X10188Y2230D02*
Y2390D01*
X10348D01*
Y2230D01*
X10188D01*
X10228Y2270D02*
Y2350D01*
X10308D01*
Y2270D01*
X10228D01*
X9656Y2230D02*
Y2390D01*
X9816D01*
Y2230D01*
X9656D01*
X9696Y2270D02*
Y2350D01*
X9776D01*
Y2270D01*
X9696D01*
X9124Y2230D02*
Y2390D01*
X9284D01*
Y2230D01*
X9124D01*
X9164Y2270D02*
Y2350D01*
X9244D01*
Y2270D01*
X9164D01*
X8592Y2230D02*
Y2390D01*
X8752D01*
Y2230D01*
X8592D01*
X8632Y2270D02*
Y2350D01*
X8712D01*
Y2270D01*
X8632D01*
X8060Y2230D02*
Y2390D01*
X8220D01*
Y2230D01*
X8060D01*
X8100Y2270D02*
Y2350D01*
X8180D01*
Y2270D01*
X8100D01*
X26150Y8790D02*
Y8950D01*
X26310D01*
Y8790D01*
X26150D01*
X26190Y8830D02*
Y8910D01*
X26270D01*
Y8830D01*
X26190D01*
X25850Y8790D02*
Y8950D01*
X26010D01*
Y8790D01*
X25850D01*
X25890Y8830D02*
Y8910D01*
X25970D01*
Y8830D01*
X25890D01*
X26130Y9870D02*
Y10030D01*
X26290D01*
Y9870D01*
X26130D01*
X26170Y9910D02*
Y9990D01*
X26250D01*
Y9910D01*
X26170D01*
X25830Y9870D02*
Y10030D01*
X25990D01*
Y9870D01*
X25830D01*
X25870Y9910D02*
Y9990D01*
X25950D01*
Y9910D01*
X25870D01*
X25835Y9600D02*
Y9760D01*
X25995D01*
Y9600D01*
X25835D01*
X25875Y9640D02*
Y9720D01*
X25955D01*
Y9640D01*
X25875D01*
X26125Y9600D02*
Y9760D01*
X26285D01*
Y9600D01*
X26125D01*
X26165Y9640D02*
Y9720D01*
X26245D01*
Y9640D01*
X26165D01*
X25835Y9350D02*
Y9510D01*
X25995D01*
Y9350D01*
X25835D01*
X25875Y9390D02*
Y9470D01*
X25955D01*
Y9390D01*
X25875D01*
X26125Y9350D02*
Y9510D01*
X26285D01*
Y9350D01*
X26125D01*
X26165Y9390D02*
Y9470D01*
X26245D01*
Y9390D01*
X26165D01*
X25845Y9070D02*
Y9230D01*
X26005D01*
Y9070D01*
X25845D01*
X25885Y9110D02*
Y9190D01*
X25965D01*
Y9110D01*
X25885D01*
X26135Y9070D02*
Y9230D01*
X26295D01*
Y9070D01*
X26135D01*
X26175Y9110D02*
Y9190D01*
X26255D01*
Y9110D01*
X26175D01*
X22525Y7370D02*
Y7530D01*
X22685D01*
Y7370D01*
X22525D01*
X22565Y7410D02*
Y7490D01*
X22645D01*
Y7410D01*
X22565D01*
X22825Y7370D02*
Y7530D01*
X22985D01*
Y7370D01*
X22825D01*
X22865Y7410D02*
Y7490D01*
X22945D01*
Y7410D01*
X22865D01*
X23155Y7370D02*
Y7530D01*
X23315D01*
Y7370D01*
X23155D01*
X23195Y7410D02*
Y7490D01*
X23275D01*
Y7410D01*
X23195D01*
X22525Y7080D02*
Y7240D01*
X22685D01*
Y7080D01*
X22525D01*
X22565Y7120D02*
Y7200D01*
X22645D01*
Y7120D01*
X22565D01*
X23155Y7080D02*
Y7240D01*
X23315D01*
Y7080D01*
X23155D01*
X23195Y7120D02*
Y7200D01*
X23275D01*
Y7120D01*
X23195D01*
X22825Y7080D02*
Y7240D01*
X22985D01*
Y7080D01*
X22825D01*
X22865Y7120D02*
Y7200D01*
X22945D01*
Y7120D01*
X22865D01*
X22845Y6820D02*
Y6980D01*
X23005D01*
Y6820D01*
X22845D01*
X22885Y6860D02*
Y6940D01*
X22965D01*
Y6860D01*
X22885D01*
X23175Y6820D02*
Y6980D01*
X23335D01*
Y6820D01*
X23175D01*
X23215Y6860D02*
Y6940D01*
X23295D01*
Y6860D01*
X23215D01*
X22545Y6820D02*
Y6980D01*
X22705D01*
Y6820D01*
X22545D01*
X22585Y6860D02*
Y6940D01*
X22665D01*
Y6860D01*
X22585D01*
X15520Y8770D02*
Y8930D01*
X15680D01*
Y8770D01*
X15520D01*
X15560Y8810D02*
Y8890D01*
X15640D01*
Y8810D01*
X15560D01*
X15230Y8770D02*
Y8930D01*
X15390D01*
Y8770D01*
X15230D01*
X15270Y8810D02*
Y8890D01*
X15350D01*
Y8810D01*
X15270D01*
X15510Y9070D02*
Y9230D01*
X15670D01*
Y9070D01*
X15510D01*
X15550Y9110D02*
Y9190D01*
X15630D01*
Y9110D01*
X15550D01*
X15220Y9070D02*
Y9230D01*
X15380D01*
Y9070D01*
X15220D01*
X15260Y9110D02*
Y9190D01*
X15340D01*
Y9110D01*
X15260D01*
X15500Y9350D02*
Y9510D01*
X15660D01*
Y9350D01*
X15500D01*
X15540Y9390D02*
Y9470D01*
X15620D01*
Y9390D01*
X15540D01*
X15210Y9350D02*
Y9510D01*
X15370D01*
Y9350D01*
X15210D01*
X15250Y9390D02*
Y9470D01*
X15330D01*
Y9390D01*
X15250D01*
X15500Y9600D02*
Y9760D01*
X15660D01*
Y9600D01*
X15500D01*
X15540Y9640D02*
Y9720D01*
X15620D01*
Y9640D01*
X15540D01*
X15210Y9600D02*
Y9760D01*
X15370D01*
Y9600D01*
X15210D01*
X15250Y9640D02*
Y9720D01*
X15330D01*
Y9640D01*
X15250D01*
X15210Y9880D02*
Y10040D01*
X15370D01*
Y9880D01*
X15210D01*
X15250Y9920D02*
Y10000D01*
X15330D01*
Y9920D01*
X15250D01*
X15500Y9880D02*
Y10040D01*
X15660D01*
Y9880D01*
X15500D01*
X15540Y9920D02*
Y10000D01*
X15620D01*
Y9920D01*
X15540D01*
X11920Y6820D02*
Y6980D01*
X12080D01*
Y6820D01*
X11920D01*
X11960Y6860D02*
Y6940D01*
X12040D01*
Y6860D01*
X11960D01*
X12550Y6820D02*
Y6980D01*
X12710D01*
Y6820D01*
X12550D01*
X12590Y6860D02*
Y6940D01*
X12670D01*
Y6860D01*
X12590D01*
X12220Y6820D02*
Y6980D01*
X12380D01*
Y6820D01*
X12220D01*
X12260Y6860D02*
Y6940D01*
X12340D01*
Y6860D01*
X12260D01*
X11910Y7650D02*
Y7810D01*
X12070D01*
Y7650D01*
X11910D01*
X11950Y7690D02*
Y7770D01*
X12030D01*
Y7690D01*
X11950D01*
X12540Y7650D02*
Y7810D01*
X12700D01*
Y7650D01*
X12540D01*
X12580Y7690D02*
Y7770D01*
X12660D01*
Y7690D01*
X12580D01*
X12210Y7650D02*
Y7810D01*
X12370D01*
Y7650D01*
X12210D01*
X12250Y7690D02*
Y7770D01*
X12330D01*
Y7690D01*
X12250D01*
X12200Y7080D02*
Y7240D01*
X12360D01*
Y7080D01*
X12200D01*
X12240Y7120D02*
Y7200D01*
X12320D01*
Y7120D01*
X12240D01*
X12530Y7080D02*
Y7240D01*
X12690D01*
Y7080D01*
X12530D01*
X12570Y7120D02*
Y7200D01*
X12650D01*
Y7120D01*
X12570D01*
X11900Y7080D02*
Y7240D01*
X12060D01*
Y7080D01*
X11900D01*
X11940Y7120D02*
Y7200D01*
X12020D01*
Y7120D01*
X11940D01*
X12530Y7370D02*
Y7530D01*
X12690D01*
Y7370D01*
X12530D01*
X12570Y7410D02*
Y7490D01*
X12650D01*
Y7410D01*
X12570D01*
X12200Y7370D02*
Y7530D01*
X12360D01*
Y7370D01*
X12200D01*
X12240Y7410D02*
Y7490D01*
X12320D01*
Y7410D01*
X12240D01*
X11900Y7370D02*
Y7530D01*
X12060D01*
Y7370D01*
X11900D01*
X11940Y7410D02*
Y7490D01*
X12020D01*
Y7410D01*
X11940D01*
X22560Y12790D02*
Y12950D01*
X22720D01*
Y12790D01*
X22560D01*
X22600Y12830D02*
Y12910D01*
X22680D01*
Y12830D01*
X22600D01*
D74*
X21750Y4010D02*
G03*
X21750Y4010I-80J0D01*
G01*
X22750D02*
G03*
X22750Y4010I-80J0D01*
G01*
X24490Y4000D02*
G03*
X24490Y4000I-80J0D01*
G01*
Y5000D02*
G03*
X24490Y5000I-80J0D01*
G01*
X25490Y4000D02*
G03*
X25490Y4000I-80J0D01*
G01*
Y5000D02*
G03*
X25490Y5000I-80J0D01*
G01*
X26490Y4000D02*
G03*
X26490Y4000I-80J0D01*
G01*
Y5000D02*
G03*
X26490Y5000I-80J0D01*
G01*
X27490Y4000D02*
G03*
X27490Y4000I-80J0D01*
G01*
Y5000D02*
G03*
X27490Y5000I-80J0D01*
G01*
X3680Y4000D02*
G03*
X3680Y4000I-80J0D01*
G01*
Y5000D02*
G03*
X3680Y5000I-80J0D01*
G01*
X4680Y4000D02*
G03*
X4680Y4000I-80J0D01*
G01*
Y5000D02*
G03*
X4680Y5000I-80J0D01*
G01*
X5680Y4000D02*
G03*
X5680Y4000I-80J0D01*
G01*
Y5000D02*
G03*
X5680Y5000I-80J0D01*
G01*
X6680Y4000D02*
G03*
X6680Y4000I-80J0D01*
G01*
Y5000D02*
G03*
X6680Y5000I-80J0D01*
G01*
X14085Y4000D02*
G03*
X14085Y4000I-80J0D01*
G01*
Y5000D02*
G03*
X14085Y5000I-80J0D01*
G01*
X15085Y4000D02*
G03*
X15085Y4000I-80J0D01*
G01*
Y5000D02*
G03*
X15085Y5000I-80J0D01*
G01*
X16085Y4000D02*
G03*
X16085Y4000I-80J0D01*
G01*
Y5000D02*
G03*
X16085Y5000I-80J0D01*
G01*
X17085Y4000D02*
G03*
X17085Y4000I-80J0D01*
G01*
Y5000D02*
G03*
X17085Y5000I-80J0D01*
G01*
M02*
