G04*
G04 #@! TF.GenerationSoftware,Altium Limited,Altium Designer,20.0.2 (26)*
G04*
G04 Layer_Color=32768*
%FSLAX24Y24*%
%MOIN*%
G70*
G01*
G75*
%ADD11C,0.0118*%
%ADD71C,0.0236*%
%ADD72C,0.0020*%
G36*
X12339Y11209D02*
X12261D01*
Y11521D01*
X12339D01*
Y11209D01*
D02*
G37*
G36*
Y9274D02*
X12560D01*
Y9196D01*
X12339D01*
Y9079D01*
X12261D01*
Y9196D01*
X12040D01*
Y9274D01*
X12261D01*
Y9391D01*
X12339D01*
Y9274D01*
D02*
G37*
G36*
X20811Y8231D02*
X20499D01*
Y8309D01*
X20811D01*
Y8231D01*
D02*
G37*
G36*
X18564Y8309D02*
X18681D01*
Y8231D01*
X18564D01*
Y8010D01*
X18486D01*
Y8231D01*
X18369D01*
Y8309D01*
X18486D01*
Y8530D01*
X18564D01*
Y8309D01*
D02*
G37*
G36*
X12338Y6703D02*
X12262D01*
Y7007D01*
X12338D01*
Y6703D01*
D02*
G37*
G36*
Y5283D02*
X12553D01*
Y5207D01*
X12338D01*
Y5093D01*
X12262D01*
Y5207D01*
X12047D01*
Y5283D01*
X12262D01*
Y5397D01*
X12338D01*
Y5283D01*
D02*
G37*
G36*
X20051Y3900D02*
X20132D01*
Y3849D01*
X20051D01*
Y3768D01*
X20000D01*
Y3849D01*
X19920D01*
Y3900D01*
X20000D01*
Y3981D01*
X20051D01*
Y3900D01*
D02*
G37*
G36*
X9608D02*
X9689D01*
Y3849D01*
X9608D01*
Y3768D01*
X9557D01*
Y3849D01*
X9476D01*
Y3900D01*
X9557D01*
Y3981D01*
X9608D01*
Y3900D01*
D02*
G37*
G36*
X20054Y3139D02*
X20003D01*
Y3351D01*
X20054D01*
Y3139D01*
D02*
G37*
G36*
X9611D02*
X9560D01*
Y3351D01*
X9611D01*
Y3139D01*
D02*
G37*
G36*
X23537Y14464D02*
X23618D01*
Y14413D01*
X23537D01*
Y14332D01*
X23486D01*
Y14413D01*
X23405D01*
Y14464D01*
X23486D01*
Y14544D01*
X23537D01*
Y14464D01*
D02*
G37*
G36*
X23540Y13702D02*
X23488D01*
Y13915D01*
X23540D01*
Y13702D01*
D02*
G37*
G36*
X22979Y11209D02*
X22901D01*
Y11521D01*
X22979D01*
Y11209D01*
D02*
G37*
G36*
Y9274D02*
X23200D01*
Y9196D01*
X22979D01*
Y9079D01*
X22901D01*
Y9196D01*
X22680D01*
Y9274D01*
X22901D01*
Y9391D01*
X22979D01*
Y9274D01*
D02*
G37*
G36*
X30761Y8231D02*
X30449D01*
Y8309D01*
X30761D01*
Y8231D01*
D02*
G37*
G36*
X28514Y8309D02*
X28631D01*
Y8231D01*
X28514D01*
Y8010D01*
X28436D01*
Y8231D01*
X28319D01*
Y8309D01*
X28436D01*
Y8530D01*
X28514D01*
Y8309D01*
D02*
G37*
G36*
X22938Y6703D02*
X22862D01*
Y7007D01*
X22938D01*
Y6703D01*
D02*
G37*
G36*
Y5283D02*
X23153D01*
Y5207D01*
X22938D01*
Y5093D01*
X22862D01*
Y5207D01*
X22647D01*
Y5283D01*
X22862D01*
Y5397D01*
X22938D01*
Y5283D01*
D02*
G37*
G36*
X30494Y3900D02*
X30575D01*
Y3849D01*
X30494D01*
Y3768D01*
X30443D01*
Y3849D01*
X30363D01*
Y3900D01*
X30443D01*
Y3981D01*
X30494D01*
Y3900D01*
D02*
G37*
G36*
X30497Y3139D02*
X30446D01*
Y3351D01*
X30497D01*
Y3139D01*
D02*
G37*
D11*
X25649Y9171D02*
G03*
X25649Y9171I-59J0D01*
G01*
X15009D02*
G03*
X15009Y9171I-59J0D01*
G01*
D71*
X8098Y7610D02*
G03*
X8098Y7610I-118J0D01*
G01*
D72*
X9852Y14440D02*
G03*
X9852Y14440I-138J0D01*
G01*
X9517D02*
X9911D01*
X9714Y14243D02*
Y14637D01*
M02*
