M48
;Layer_Color=9474304
;FILE_FORMAT=2:5
INCH,LZ
;TYPE=PLATED
T1F00S00C0.01200
T2F00S00C0.03000
T3F00S00C0.03543
T5F00S00C0.04331
T6F00S00C0.04724
T8F00S00C0.15748
%
T01
X00814Y00086
X00813Y00122
Y0016
Y00195
X00814Y00231
X008672
X008662Y00195
Y0016
Y00122
X008672Y00086
X009204
X009194Y00122
Y0016
Y00195
X009204Y00231
X009736
X009726Y00195
Y0016
Y00122
X009736Y00086
X010268
X010258Y00122
Y0016
Y00195
X010268Y00231
X0108
X01079Y00195
Y0016
Y00122
X0108Y00086
X01884
X01883Y00122
Y0016
Y00195
X01884Y00231
X019372
X019362Y00195
Y0016
Y00122
X019372Y00086
X019904
X019894Y00122
Y0016
Y00195
X019904Y00231
X020436
X020426Y00195
Y0016
Y00122
X020436Y00086
X020968
X020958Y00122
Y0016
Y00195
X020968Y00231
X0215
X02149Y00195
Y0016
Y00122
X0215Y00086
X022625Y0069
X022605Y00716
Y00745
X022905
Y00716
X022925Y0069
X023255
X023235Y00716
Y00745
X02244Y00879
X02243Y00907
X02245Y00935
Y00961
X02247Y00989
X022155
X022145Y00961
X022135Y00935
X022125Y00907
Y00879
X02181
X02182Y00907
Y00935
X02184Y00961
Y00989
X02264Y01287
X02591Y00995
X025915Y00968
Y00943
X026205
Y00968
X02621Y00995
X026215Y00915
X025925
X02593Y00887
X02623
X0156Y00885
X01531
X0153Y00915
X01559
X01558Y00943
Y00968
Y00996
X01529
Y00968
Y00943
X01186Y00955
X01185Y00928
Y009
Y00871
X01154
X011535Y009
X01154Y00928
X011545Y00955
X01155Y00983
X01186
X01124
X01123Y00955
Y00927
X01122Y009
X01123Y00871
X01199Y00773
X01198Y00745
Y00716
X012Y0069
X0123
X01228Y00716
Y00745
X01229Y00773
X01262
X01261Y00745
Y00716
X01263Y0069
X00458Y00733
Y00763
Y00793
X00418
Y00763
Y00733
X00378
Y00763
Y00793
T02
X0255515Y01365
X0265357
X02752
T03
X01467Y01266
X01367
T05
X0036Y004
X0046
X0056
X0066
X014005
X015005
X016005
X017005
X02167Y00401
X02267
X02441Y004
X02541
X02641
X02741
Y005
X02641
X02541
X02441
X017005
X016005
X015005
X014005
X0066
X0056
X0046
X0036
T06
X00873Y01444
X01073
T08
X0015748Y0015748
X0299213Y0015748
Y0141732
X0015748
M30
