G04*
G04 #@! TF.GenerationSoftware,Altium Limited,Altium Designer,20.0.2 (26)*
G04*
G04 Layer_Physical_Order=1*
G04 Layer_Color=255*
%FSLAX24Y24*%
%MOIN*%
G70*
G01*
G75*
G04:AMPARAMS|DCode=17|XSize=30mil|YSize=30mil|CornerRadius=7.5mil|HoleSize=0mil|Usage=FLASHONLY|Rotation=270.000|XOffset=0mil|YOffset=0mil|HoleType=Round|Shape=RoundedRectangle|*
%AMROUNDEDRECTD17*
21,1,0.0300,0.0150,0,0,270.0*
21,1,0.0150,0.0300,0,0,270.0*
1,1,0.0150,-0.0075,-0.0075*
1,1,0.0150,-0.0075,0.0075*
1,1,0.0150,0.0075,0.0075*
1,1,0.0150,0.0075,-0.0075*
%
%ADD17ROUNDEDRECTD17*%
%ADD18R,0.0630X0.1181*%
%ADD19R,0.2283X0.2441*%
%ADD20R,0.1378X0.0554*%
%ADD21R,0.0315X0.0315*%
G04:AMPARAMS|DCode=22|XSize=30mil|YSize=30mil|CornerRadius=7.5mil|HoleSize=0mil|Usage=FLASHONLY|Rotation=180.000|XOffset=0mil|YOffset=0mil|HoleType=Round|Shape=RoundedRectangle|*
%AMROUNDEDRECTD22*
21,1,0.0300,0.0150,0,0,180.0*
21,1,0.0150,0.0300,0,0,180.0*
1,1,0.0150,-0.0075,0.0075*
1,1,0.0150,0.0075,0.0075*
1,1,0.0150,0.0075,-0.0075*
1,1,0.0150,-0.0075,-0.0075*
%
%ADD22ROUNDEDRECTD22*%
%ADD23R,0.0638X0.0806*%
%ADD24O,0.0224X0.0768*%
%ADD25R,0.1378X0.0472*%
%ADD26R,0.0472X0.1378*%
%ADD27R,0.0974X0.1307*%
%ADD28R,0.1380X0.0850*%
%ADD29R,0.0430X0.0850*%
%ADD54C,0.0050*%
%ADD55C,0.0200*%
%ADD56R,0.0700X0.0700*%
%ADD57C,0.0630*%
%ADD58R,0.0669X0.0669*%
%ADD59C,0.0669*%
%ADD60C,0.0600*%
%ADD61O,0.1496X0.0591*%
%ADD62O,0.0591X0.1339*%
%ADD63O,0.0787X0.1378*%
%ADD64R,0.0906X0.0906*%
%ADD65C,0.0906*%
%ADD66R,0.0630X0.0630*%
%ADD67C,0.0220*%
G36*
X30739Y15514D02*
X30881Y15455D01*
X31009Y15370D01*
X31118Y15261D01*
X31203Y15133D01*
X31262Y14991D01*
X31292Y14841D01*
X31292Y14764D01*
Y984D01*
X31292Y907D01*
X31262Y757D01*
X31203Y615D01*
X31118Y487D01*
X31009Y378D01*
X30881Y293D01*
X30739Y234D01*
X30589Y204D01*
X907D01*
X757Y234D01*
X615Y293D01*
X487Y378D01*
X378Y487D01*
X293Y615D01*
X234Y757D01*
X204Y907D01*
Y984D01*
Y14764D01*
Y14841D01*
X234Y14991D01*
X293Y15133D01*
X378Y15261D01*
X487Y15370D01*
X615Y15455D01*
X757Y15514D01*
X907Y15544D01*
X2756D01*
X2775Y15498D01*
X2679Y15401D01*
X2660Y15373D01*
X2653Y15340D01*
Y9850D01*
X2660Y9817D01*
X2679Y9789D01*
X2959Y9509D01*
X2987Y9490D01*
X3020Y9483D01*
X10020Y9483D01*
X10053Y9490D01*
X10081Y9509D01*
X10231Y9659D01*
X10250Y9687D01*
X10257Y9720D01*
X10257Y9991D01*
X10257Y10431D01*
X10257Y10911D01*
X10257Y11351D01*
X10257Y11831D01*
Y12014D01*
X10346Y12103D01*
X14920D01*
X14953Y12110D01*
X14981Y12129D01*
X15131Y12279D01*
X15150Y12307D01*
X15157Y12340D01*
Y15450D01*
X15150Y15483D01*
X15143Y15494D01*
X15151Y15523D01*
X15162Y15539D01*
X15168Y15544D01*
X30589D01*
X30739Y15514D01*
D02*
G37*
%LPC*%
G36*
X22739Y14673D02*
X22589D01*
X22536Y14663D01*
X22492Y14633D01*
X22462Y14588D01*
X22451Y14535D01*
Y14385D01*
X22462Y14333D01*
X22492Y14288D01*
X22536Y14258D01*
X22589Y14248D01*
X22739D01*
X22792Y14258D01*
X22833Y14286D01*
X23294D01*
Y14221D01*
X23729D01*
Y14656D01*
X23294D01*
Y14612D01*
X22850D01*
X22836Y14633D01*
X22792Y14663D01*
X22739Y14673D01*
D02*
G37*
G36*
X29921Y15025D02*
X29755Y15008D01*
X29595Y14960D01*
X29448Y14881D01*
X29319Y14775D01*
X29213Y14646D01*
X29135Y14499D01*
X29086Y14339D01*
X29070Y14173D01*
X29086Y14007D01*
X29135Y13847D01*
X29213Y13700D01*
X29319Y13571D01*
X29448Y13465D01*
X29595Y13387D01*
X29755Y13338D01*
X29921Y13322D01*
X30087Y13338D01*
X30247Y13387D01*
X30394Y13465D01*
X30523Y13571D01*
X30629Y13700D01*
X30708Y13847D01*
X30756Y14007D01*
X30773Y14173D01*
X30756Y14339D01*
X30708Y14499D01*
X30629Y14646D01*
X30523Y14775D01*
X30394Y14881D01*
X30247Y14960D01*
X30087Y15008D01*
X29921Y15025D01*
D02*
G37*
G36*
X1575D02*
X1409Y15008D01*
X1249Y14960D01*
X1102Y14881D01*
X973Y14775D01*
X867Y14646D01*
X788Y14499D01*
X740Y14339D01*
X723Y14173D01*
X740Y14007D01*
X788Y13847D01*
X867Y13700D01*
X973Y13571D01*
X1102Y13465D01*
X1249Y13387D01*
X1409Y13338D01*
X1575Y13322D01*
X1741Y13338D01*
X1901Y13387D01*
X2048Y13465D01*
X2177Y13571D01*
X2283Y13700D01*
X2361Y13847D01*
X2410Y14007D01*
X2426Y14173D01*
X2410Y14339D01*
X2361Y14499D01*
X2283Y14646D01*
X2177Y14775D01*
X2048Y14881D01*
X1901Y14960D01*
X1741Y15008D01*
X1575Y15025D01*
D02*
G37*
G36*
X27520Y14013D02*
X27426Y14001D01*
X27338Y13964D01*
X27263Y13907D01*
X27206Y13832D01*
X27169Y13744D01*
X27157Y13650D01*
X27169Y13556D01*
X27206Y13468D01*
X27263Y13393D01*
X27338Y13336D01*
X27426Y13299D01*
X27520Y13287D01*
X27614Y13299D01*
X27702Y13336D01*
X27777Y13393D01*
X27834Y13468D01*
X27871Y13556D01*
X27883Y13650D01*
X27871Y13744D01*
X27834Y13832D01*
X27777Y13907D01*
X27702Y13964D01*
X27614Y14001D01*
X27520Y14013D01*
D02*
G37*
G36*
X20900Y14223D02*
X20782Y14207D01*
X20671Y14162D01*
X20576Y14089D01*
X20504Y13994D01*
X20458Y13884D01*
X20442Y13765D01*
Y13175D01*
X20458Y13056D01*
X20504Y12946D01*
X20576Y12851D01*
X20671Y12778D01*
X20782Y12733D01*
X20900Y12717D01*
X21018Y12733D01*
X21129Y12778D01*
X21224Y12851D01*
X21296Y12946D01*
X21342Y13056D01*
X21358Y13175D01*
Y13765D01*
X21342Y13884D01*
X21296Y13994D01*
X21224Y14089D01*
X21129Y14162D01*
X21018Y14207D01*
X20900Y14223D01*
D02*
G37*
G36*
X19000D02*
X18882Y14207D01*
X18771Y14162D01*
X18676Y14089D01*
X18604Y13994D01*
X18558Y13884D01*
X18542Y13765D01*
Y13175D01*
X18558Y13056D01*
X18604Y12946D01*
X18676Y12851D01*
X18771Y12778D01*
X18882Y12733D01*
X19000Y12717D01*
X19118Y12733D01*
X19229Y12778D01*
X19324Y12851D01*
X19396Y12946D01*
X19442Y13056D01*
X19458Y13175D01*
Y13765D01*
X19442Y13884D01*
X19396Y13994D01*
X19324Y14089D01*
X19229Y14162D01*
X19118Y14207D01*
X19000Y14223D01*
D02*
G37*
G36*
X17100D02*
X16982Y14207D01*
X16871Y14162D01*
X16776Y14089D01*
X16704Y13994D01*
X16658Y13884D01*
X16642Y13765D01*
Y13175D01*
X16658Y13056D01*
X16704Y12946D01*
X16776Y12851D01*
X16871Y12778D01*
X16982Y12733D01*
X17100Y12717D01*
X17218Y12733D01*
X17329Y12778D01*
X17424Y12851D01*
X17496Y12946D01*
X17542Y13056D01*
X17558Y13175D01*
Y13765D01*
X17542Y13884D01*
X17496Y13994D01*
X17424Y14089D01*
X17329Y14162D01*
X17218Y14207D01*
X17100Y14223D01*
D02*
G37*
G36*
X22739Y14073D02*
X22589D01*
X22536Y14063D01*
X22492Y14033D01*
X22462Y13988D01*
X22451Y13935D01*
Y13785D01*
X22462Y13733D01*
X22481Y13704D01*
Y12938D01*
X22480Y12936D01*
X22467Y12870D01*
X22480Y12804D01*
X22517Y12747D01*
X22574Y12710D01*
X22640Y12697D01*
X22706Y12710D01*
X22763Y12747D01*
X22800Y12804D01*
X22813Y12870D01*
X22807Y12901D01*
Y13669D01*
X22836Y13688D01*
X22866Y13733D01*
X22877Y13785D01*
Y13935D01*
X22866Y13988D01*
X22836Y14033D01*
X22792Y14063D01*
X22739Y14073D01*
D02*
G37*
G36*
X18665Y11423D02*
X18515D01*
X18462Y11412D01*
X18418Y11382D01*
X18412Y11373D01*
X18280D01*
X18218Y11361D01*
X18165Y11325D01*
X18165Y11325D01*
X18035Y11195D01*
X17999Y11142D01*
X17987Y11080D01*
Y10918D01*
X17842Y10773D01*
X17748D01*
X17742Y10782D01*
X17698Y10812D01*
X17645Y10823D01*
X17495D01*
X17442Y10812D01*
X17398Y10782D01*
X17392Y10773D01*
X16280D01*
X16218Y10761D01*
X16165Y10725D01*
X15835Y10395D01*
X15799Y10342D01*
X15787Y10280D01*
Y10211D01*
X15741Y10192D01*
X15721Y10211D01*
X15693Y10230D01*
X15660Y10237D01*
X15280Y10237D01*
X15247Y10230D01*
X15219Y10211D01*
X15116Y10109D01*
X15096Y10102D01*
X15050Y10104D01*
X15013Y10141D01*
X14985Y10160D01*
X14951Y10167D01*
X11160D01*
X11127Y10160D01*
X11099Y10141D01*
X10969Y10011D01*
X10950Y9983D01*
X10943Y9950D01*
Y9671D01*
X10943Y9311D01*
Y9111D01*
X10943Y8730D01*
X10950Y8697D01*
X10969Y8669D01*
X11057Y8581D01*
Y7088D01*
X10372Y6403D01*
X8838D01*
X8832Y6412D01*
X8788Y6442D01*
X8735Y6453D01*
X8585D01*
X8532Y6442D01*
X8488Y6412D01*
X8458Y6368D01*
X8447Y6315D01*
Y6224D01*
X8397Y6203D01*
X8285Y6315D01*
X8232Y6351D01*
X8170Y6363D01*
X8010D01*
X8007Y6378D01*
X7977Y6422D01*
X7933Y6452D01*
X7880Y6463D01*
X7730D01*
X7677Y6452D01*
X7633Y6422D01*
X7627Y6413D01*
X7148D01*
X7142Y6422D01*
X7098Y6452D01*
X7045Y6463D01*
X6895D01*
X6842Y6452D01*
X6798Y6422D01*
X6792Y6413D01*
X6125D01*
Y6885D01*
X5575D01*
Y5943D01*
X5225D01*
Y6885D01*
X5113D01*
Y8355D01*
X5700D01*
Y9325D01*
X4200D01*
Y9003D01*
X3950D01*
X3888Y8991D01*
X3835Y8955D01*
X3165Y8285D01*
X3129Y8232D01*
X3117Y8170D01*
Y6628D01*
X2952Y6463D01*
X2800D01*
X2798Y6463D01*
X2675D01*
X2622Y6452D01*
X2578Y6422D01*
X2572Y6413D01*
X2228D01*
X2222Y6422D01*
X2178Y6452D01*
X2125Y6463D01*
X1975D01*
X1922Y6452D01*
X1878Y6422D01*
X1848Y6378D01*
X1837Y6325D01*
Y6175D01*
X1848Y6122D01*
X1878Y6078D01*
X1887Y6072D01*
Y5897D01*
X1899Y5835D01*
X1935Y5782D01*
X2052Y5665D01*
X2105Y5629D01*
X2167Y5617D01*
X7840D01*
X7894Y5563D01*
X7875Y5517D01*
X7361D01*
Y4843D01*
X8859D01*
Y5032D01*
X9403D01*
X9439Y5008D01*
X9492Y4997D01*
X9642D01*
X9694Y5008D01*
X9739Y5038D01*
X9769Y5082D01*
X9779Y5135D01*
Y5285D01*
X9769Y5338D01*
X9739Y5382D01*
X9694Y5412D01*
X9642Y5423D01*
X9492D01*
X9439Y5412D01*
X9394Y5382D01*
X9378Y5358D01*
X8859D01*
Y5517D01*
X8896Y5548D01*
X15695D01*
X15716Y5498D01*
X15489Y5271D01*
X15470Y5243D01*
X15463Y5210D01*
Y3500D01*
X15470Y3467D01*
X15489Y3439D01*
X15709Y3219D01*
X15737Y3200D01*
X15770Y3193D01*
X19230D01*
X19263Y3200D01*
X19291Y3219D01*
X19411Y3339D01*
X19430Y3367D01*
X19437Y3400D01*
Y3960D01*
X19430Y3993D01*
X19411Y4021D01*
X19311Y4121D01*
X19283Y4140D01*
X19250Y4147D01*
X17716D01*
X17587Y4276D01*
Y4858D01*
X17637Y4863D01*
X17640Y4847D01*
X17659Y4819D01*
X17739Y4739D01*
X17767Y4720D01*
X17779Y4718D01*
X17800Y4713D01*
X19250Y4713D01*
X19283Y4720D01*
X19311Y4739D01*
X19431Y4859D01*
X19450Y4887D01*
X19457Y4920D01*
Y5017D01*
X19873D01*
X19886Y5008D01*
X19938Y4997D01*
X20088D01*
X20141Y5008D01*
X20186Y5038D01*
X20215Y5082D01*
X20226Y5135D01*
Y5285D01*
X20215Y5338D01*
X20186Y5382D01*
X20141Y5412D01*
X20088Y5423D01*
X19938D01*
X19886Y5412D01*
X19841Y5382D01*
X19815Y5343D01*
X19457D01*
Y5776D01*
X19655Y5975D01*
X19691Y6028D01*
X19703Y6090D01*
Y10310D01*
X19703Y10310D01*
X19691Y10372D01*
X19655Y10425D01*
X19365Y10715D01*
X19312Y10751D01*
X19250Y10763D01*
X18775D01*
X18762Y10782D01*
X18718Y10812D01*
X18665Y10823D01*
X18515D01*
X18462Y10812D01*
X18418Y10782D01*
X18388Y10738D01*
X18377Y10685D01*
Y10535D01*
X18388Y10482D01*
X18418Y10438D01*
X18462Y10408D01*
X18515Y10397D01*
X18665D01*
X18718Y10408D01*
X18761Y10437D01*
X19182D01*
X19377Y10242D01*
Y8744D01*
X19327Y8718D01*
X19323Y8720D01*
X19290Y8727D01*
X17830D01*
X17797Y8720D01*
X17769Y8701D01*
X17659Y8591D01*
X17640Y8563D01*
X17633Y8530D01*
Y8066D01*
X17504Y7937D01*
X16930Y7937D01*
Y8440D01*
X16880Y8490D01*
X14170D01*
X14130Y8450D01*
Y7924D01*
X13742D01*
Y7907D01*
X11850Y7907D01*
X11817Y7900D01*
X11789Y7881D01*
X11720Y7813D01*
X11701Y7784D01*
X11695Y7751D01*
X11695Y7471D01*
Y7391D01*
X11695Y6911D01*
Y6669D01*
X11701Y6636D01*
X11720Y6607D01*
X11799Y6529D01*
X11827Y6510D01*
X11860Y6503D01*
X13742Y6503D01*
Y6496D01*
X14130D01*
Y6010D01*
X14210Y5930D01*
X16850D01*
X16930Y6010D01*
Y6496D01*
X17318D01*
Y6503D01*
X17484D01*
X17633Y6354D01*
X17633Y5911D01*
X17602Y5874D01*
X8726D01*
X8623Y5977D01*
X8644Y6027D01*
X8735D01*
X8788Y6038D01*
X8832Y6068D01*
X8838Y6077D01*
X10440D01*
X10502Y6089D01*
X10555Y6125D01*
X11335Y6905D01*
X11371Y6958D01*
X11383Y7020D01*
Y8473D01*
X12540D01*
X12573Y8480D01*
X12601Y8499D01*
X12846Y8743D01*
X14930D01*
X14963Y8750D01*
X14991Y8769D01*
X15033Y8811D01*
X15081Y8792D01*
X15083Y8790D01*
Y8710D01*
X15090Y8677D01*
X15109Y8649D01*
X15169Y8589D01*
X15197Y8570D01*
X15230Y8563D01*
X15680D01*
X15713Y8570D01*
X15741Y8589D01*
X15791Y8639D01*
X15810Y8667D01*
X15817Y8700D01*
Y8995D01*
X15867Y9022D01*
X15883Y9011D01*
X15950Y8998D01*
X16017Y9011D01*
X16074Y9049D01*
X16112Y9106D01*
X16125Y9173D01*
Y9717D01*
X16113Y9778D01*
Y10212D01*
X16348Y10447D01*
X17392D01*
X17398Y10438D01*
X17442Y10408D01*
X17495Y10397D01*
X17645D01*
X17698Y10408D01*
X17742Y10438D01*
X17748Y10447D01*
X17910D01*
X17972Y10459D01*
X18025Y10495D01*
X18265Y10735D01*
X18301Y10788D01*
X18313Y10850D01*
Y11012D01*
X18348Y11047D01*
X18412D01*
X18418Y11038D01*
X18462Y11008D01*
X18515Y10997D01*
X18665D01*
X18718Y11008D01*
X18762Y11038D01*
X18792Y11082D01*
X18803Y11135D01*
Y11285D01*
X18792Y11338D01*
X18762Y11382D01*
X18718Y11412D01*
X18665Y11423D01*
D02*
G37*
G36*
X26536Y14013D02*
X26442Y14001D01*
X26354Y13964D01*
X26279Y13907D01*
X26221Y13832D01*
X26185Y13744D01*
X26173Y13650D01*
X26185Y13556D01*
X26221Y13468D01*
X26279Y13393D01*
X26354Y13336D01*
X26373Y13328D01*
Y12924D01*
X26385Y12862D01*
X26420Y12809D01*
X26765Y12465D01*
X26818Y12429D01*
X26880Y12417D01*
X26890D01*
X26940Y12407D01*
X27812D01*
X28047Y12172D01*
Y11388D01*
X28038Y11382D01*
X28032Y11373D01*
X27864D01*
X27801Y11361D01*
X27748Y11325D01*
X27406Y10983D01*
X26990D01*
X26928Y10971D01*
X26875Y10935D01*
X26475Y10535D01*
X26439Y10482D01*
X26427Y10420D01*
Y10201D01*
X26377Y10181D01*
X26346Y10211D01*
X26318Y10230D01*
X26285Y10237D01*
X25905Y10237D01*
X25872Y10230D01*
X25844Y10211D01*
X25734Y10101D01*
X25675Y10104D01*
X25668Y10111D01*
X25640Y10130D01*
X25606Y10137D01*
X21710Y10137D01*
X21677Y10130D01*
X21649Y10111D01*
X21569Y10031D01*
X21550Y10003D01*
X21543Y9970D01*
X21543Y9631D01*
X21543Y9431D01*
X21543Y9191D01*
X21543Y8951D01*
X21543Y8700D01*
X21550Y8667D01*
X21569Y8639D01*
X21709Y8499D01*
X21737Y8480D01*
X21770Y8473D01*
X23165D01*
X23198Y8480D01*
X23226Y8499D01*
X23227Y8500D01*
X23236D01*
Y8509D01*
X23471Y8743D01*
X25555D01*
X25588Y8750D01*
X25616Y8769D01*
X25662Y8815D01*
X25708Y8795D01*
Y8710D01*
X25715Y8677D01*
X25734Y8649D01*
X25794Y8589D01*
X25822Y8570D01*
X25855Y8563D01*
X26305D01*
X26338Y8570D01*
X26366Y8589D01*
X26416Y8639D01*
X26435Y8667D01*
X26442Y8700D01*
Y9005D01*
X26492Y9032D01*
X26523Y9011D01*
X26590Y8998D01*
X26657Y9011D01*
X26714Y9049D01*
X26752Y9106D01*
X26765Y9173D01*
Y9717D01*
X26753Y9778D01*
Y10352D01*
X27058Y10657D01*
X27474D01*
X27536Y10669D01*
X27589Y10705D01*
X27931Y11047D01*
X28032D01*
X28038Y11038D01*
X28082Y11008D01*
X28135Y10997D01*
X28285D01*
X28338Y11008D01*
X28382Y11038D01*
X28385Y11042D01*
X29038D01*
X29048Y11028D01*
X29092Y10998D01*
X29145Y10987D01*
X29295D01*
X29348Y10998D01*
X29392Y11028D01*
X29422Y11072D01*
X29433Y11125D01*
Y11275D01*
X29422Y11328D01*
X29392Y11372D01*
X29348Y11402D01*
X29295Y11413D01*
X29145D01*
X29092Y11402D01*
X29048Y11372D01*
X29045Y11368D01*
X28392D01*
X28382Y11382D01*
X28373Y11388D01*
Y12240D01*
X28361Y12302D01*
X28325Y12355D01*
X27995Y12685D01*
X27942Y12721D01*
X27880Y12733D01*
X26990D01*
X26949Y12741D01*
X26699Y12992D01*
Y13328D01*
X26717Y13336D01*
X26793Y13393D01*
X26850Y13468D01*
X26886Y13556D01*
X26899Y13650D01*
X26886Y13744D01*
X26850Y13832D01*
X26793Y13907D01*
X26717Y13964D01*
X26630Y14001D01*
X26536Y14013D01*
D02*
G37*
G36*
X27090Y9892D02*
X27023Y9879D01*
X26966Y9841D01*
X26928Y9784D01*
X26915Y9717D01*
Y9173D01*
X26928Y9106D01*
X26966Y9049D01*
X27023Y9011D01*
X27090Y8998D01*
X27157Y9011D01*
X27214Y9049D01*
X27252Y9106D01*
X27265Y9173D01*
Y9717D01*
X27252Y9784D01*
X27214Y9841D01*
X27157Y9879D01*
X27090Y9892D01*
D02*
G37*
G36*
X16450D02*
X16383Y9879D01*
X16326Y9841D01*
X16288Y9784D01*
X16275Y9717D01*
Y9173D01*
X16288Y9106D01*
X16326Y9049D01*
X16383Y9011D01*
X16450Y8998D01*
X16517Y9011D01*
X16574Y9049D01*
X16612Y9106D01*
X16625Y9173D01*
Y9717D01*
X16612Y9784D01*
X16574Y9841D01*
X16517Y9879D01*
X16450Y9892D01*
D02*
G37*
G36*
X28285Y10823D02*
X28135D01*
X28082Y10812D01*
X28038Y10782D01*
X28008Y10738D01*
X27997Y10685D01*
Y10535D01*
X28008Y10482D01*
X28038Y10438D01*
X28082Y10408D01*
X28135Y10397D01*
X28258D01*
X28260Y10397D01*
X28262Y10397D01*
X28285D01*
X28338Y10408D01*
X28382Y10438D01*
X28385Y10442D01*
X29038D01*
X29048Y10428D01*
X29092Y10398D01*
X29145Y10387D01*
X29202D01*
X29397Y10192D01*
Y8631D01*
X29351Y8612D01*
X29281Y8681D01*
X29253Y8700D01*
X29220Y8707D01*
X27880Y8707D01*
X27847Y8700D01*
X27819Y8681D01*
X27639Y8501D01*
X27620Y8473D01*
X27613Y8440D01*
Y8271D01*
X27613Y8026D01*
X27524Y7937D01*
X27300Y7937D01*
Y8440D01*
X27250Y8490D01*
X24540D01*
X24500Y8450D01*
Y7924D01*
X24112D01*
Y7907D01*
X22490D01*
X22457Y7900D01*
X22429Y7881D01*
X22345Y7798D01*
X22326Y7769D01*
X22320Y7736D01*
X22320Y7551D01*
X22320Y7191D01*
X22320Y6831D01*
Y6669D01*
X22324Y6648D01*
X22326Y6636D01*
X22345Y6607D01*
X22414Y6539D01*
X22442Y6520D01*
X22475Y6513D01*
X24112Y6513D01*
Y6496D01*
X24500D01*
Y6010D01*
X24570Y5940D01*
X27230D01*
X27300Y6010D01*
Y6496D01*
X27688D01*
Y6503D01*
X27889D01*
X28038Y6354D01*
X28038Y6271D01*
X28038Y5911D01*
X28038Y5711D01*
X28038Y5351D01*
Y5271D01*
X27988Y5267D01*
X27985Y5283D01*
X27966Y5311D01*
X27756Y5521D01*
X27728Y5540D01*
X27695Y5547D01*
X26205D01*
X26172Y5540D01*
X26144Y5521D01*
X25894Y5271D01*
X25875Y5243D01*
X25868Y5210D01*
Y3500D01*
X25875Y3467D01*
X25894Y3439D01*
X26114Y3219D01*
X26142Y3200D01*
X26175Y3193D01*
X26487D01*
X26506Y3147D01*
X26412Y3053D01*
X23858D01*
X23025Y3886D01*
X23035Y3912D01*
X23048Y4010D01*
X23035Y4108D01*
X22998Y4199D01*
X22937Y4277D01*
X22859Y4338D01*
X22768Y4375D01*
X22670Y4388D01*
X22572Y4375D01*
X22481Y4338D01*
X22403Y4277D01*
X22342Y4199D01*
X22305Y4108D01*
X22292Y4010D01*
X22305Y3912D01*
X22342Y3821D01*
X22403Y3743D01*
X22481Y3682D01*
X22572Y3645D01*
X22670Y3632D01*
X22768Y3645D01*
X22794Y3655D01*
X23675Y2775D01*
X23728Y2739D01*
X23790Y2727D01*
X26480D01*
X26542Y2739D01*
X26595Y2775D01*
X27014Y3193D01*
X29635D01*
X29668Y3200D01*
X29696Y3219D01*
X29816Y3339D01*
X29835Y3367D01*
X29842Y3400D01*
Y3960D01*
X29835Y3993D01*
X29816Y4021D01*
X29716Y4121D01*
X29688Y4140D01*
X29655Y4147D01*
X28121D01*
X27992Y4276D01*
Y4858D01*
X28042Y4863D01*
X28045Y4847D01*
X28064Y4819D01*
X28144Y4739D01*
X28172Y4720D01*
X28184Y4718D01*
X28205Y4713D01*
X29280Y4713D01*
X29313Y4720D01*
X29341Y4739D01*
X29445Y4843D01*
X29699D01*
Y5067D01*
X30268D01*
X30288Y5038D01*
X30332Y5008D01*
X30385Y4997D01*
X30535D01*
X30588Y5008D01*
X30632Y5038D01*
X30662Y5082D01*
X30673Y5135D01*
Y5285D01*
X30662Y5338D01*
X30632Y5382D01*
X30588Y5412D01*
X30535Y5423D01*
X30385D01*
X30332Y5412D01*
X30303Y5393D01*
X29699D01*
Y5517D01*
X29522D01*
X29487Y5567D01*
X29487Y5854D01*
X29675Y6043D01*
X29711Y6096D01*
X29723Y6158D01*
Y10260D01*
X29711Y10322D01*
X29675Y10375D01*
X29433Y10618D01*
Y10675D01*
X29422Y10728D01*
X29392Y10772D01*
X29348Y10802D01*
X29295Y10813D01*
X29145D01*
X29092Y10802D01*
X29048Y10772D01*
X29045Y10768D01*
X28392D01*
X28382Y10782D01*
X28338Y10812D01*
X28285Y10823D01*
D02*
G37*
G36*
X8353Y8863D02*
X7603D01*
Y7562D01*
X8353D01*
Y8049D01*
X8450D01*
X8497Y8002D01*
Y7018D01*
X8488Y7012D01*
X8458Y6968D01*
X8447Y6915D01*
Y6765D01*
X8458Y6712D01*
X8488Y6668D01*
X8532Y6638D01*
X8585Y6627D01*
X8735D01*
X8788Y6638D01*
X8832Y6668D01*
X8862Y6712D01*
X8873Y6765D01*
Y6915D01*
X8862Y6968D01*
X8832Y7012D01*
X8823Y7018D01*
Y8070D01*
X8811Y8132D01*
X8775Y8185D01*
X8633Y8328D01*
X8580Y8363D01*
X8518Y8376D01*
X8353D01*
Y8863D01*
D02*
G37*
G36*
X30535Y4823D02*
X30385D01*
X30332Y4812D01*
X30288Y4782D01*
X30258Y4738D01*
X30247Y4685D01*
Y4535D01*
X30258Y4482D01*
X30288Y4438D01*
X30301Y4429D01*
Y4092D01*
X30251D01*
Y3657D01*
X30686D01*
Y4092D01*
X30627D01*
Y4434D01*
X30632Y4438D01*
X30662Y4482D01*
X30673Y4535D01*
Y4685D01*
X30662Y4738D01*
X30632Y4782D01*
X30588Y4812D01*
X30535Y4823D01*
D02*
G37*
G36*
X20088D02*
X19938D01*
X19886Y4812D01*
X19841Y4782D01*
X19811Y4738D01*
X19801Y4685D01*
Y4535D01*
X19811Y4482D01*
X19818Y4472D01*
Y4092D01*
X19808D01*
Y3894D01*
X19804Y3875D01*
X19808Y3855D01*
Y3657D01*
X20243D01*
Y4092D01*
X20144D01*
Y4410D01*
X20186Y4438D01*
X20215Y4482D01*
X20226Y4535D01*
Y4685D01*
X20215Y4738D01*
X20186Y4782D01*
X20141Y4812D01*
X20088Y4823D01*
D02*
G37*
G36*
X9642D02*
X9492D01*
X9439Y4812D01*
X9394Y4782D01*
X9364Y4738D01*
X9354Y4685D01*
Y4535D01*
X9364Y4482D01*
X9394Y4438D01*
X9411Y4426D01*
Y4092D01*
X9365D01*
Y3657D01*
X9800D01*
Y4092D01*
X9738D01*
Y4437D01*
X9739Y4438D01*
X9769Y4482D01*
X9779Y4535D01*
Y4685D01*
X9769Y4738D01*
X9739Y4782D01*
X9694Y4812D01*
X9642Y4823D01*
D02*
G37*
G36*
X6885Y5547D02*
X5395D01*
X5362Y5540D01*
X5334Y5521D01*
X5084Y5271D01*
X5065Y5243D01*
X5058Y5210D01*
Y3500D01*
X5065Y3467D01*
X5084Y3439D01*
X5304Y3219D01*
X5332Y3200D01*
X5365Y3193D01*
X8825D01*
X8858Y3200D01*
X8886Y3219D01*
X9006Y3339D01*
X9025Y3367D01*
X9032Y3400D01*
Y3960D01*
X9025Y3993D01*
X9006Y4021D01*
X8906Y4121D01*
X8878Y4140D01*
X8845Y4147D01*
X7311D01*
X7182Y4276D01*
Y5250D01*
X7175Y5283D01*
X7156Y5311D01*
X6946Y5521D01*
X6918Y5540D01*
X6885Y5547D01*
D02*
G37*
G36*
X29921Y2426D02*
X29755Y2410D01*
X29595Y2361D01*
X29448Y2283D01*
X29319Y2177D01*
X29213Y2048D01*
X29135Y1901D01*
X29086Y1741D01*
X29070Y1575D01*
X29086Y1409D01*
X29135Y1249D01*
X29213Y1102D01*
X29319Y973D01*
X29448Y867D01*
X29595Y788D01*
X29755Y740D01*
X29921Y723D01*
X30087Y740D01*
X30247Y788D01*
X30394Y867D01*
X30523Y973D01*
X30629Y1102D01*
X30708Y1249D01*
X30756Y1409D01*
X30773Y1575D01*
X30756Y1741D01*
X30708Y1901D01*
X30629Y2048D01*
X30523Y2177D01*
X30394Y2283D01*
X30247Y2361D01*
X30087Y2410D01*
X29921Y2426D01*
D02*
G37*
G36*
X1575Y2426D02*
X1409Y2410D01*
X1249Y2361D01*
X1102Y2283D01*
X973Y2177D01*
X867Y2048D01*
X788Y1901D01*
X740Y1741D01*
X723Y1575D01*
X740Y1409D01*
X788Y1249D01*
X867Y1102D01*
X973Y973D01*
X1102Y867D01*
X1249Y788D01*
X1409Y740D01*
X1575Y723D01*
X1741Y740D01*
X1901Y788D01*
X2048Y867D01*
X2177Y973D01*
X2283Y1102D01*
X2361Y1249D01*
X2410Y1409D01*
X2426Y1575D01*
X2410Y1741D01*
X2361Y1901D01*
X2283Y2048D01*
X2177Y2177D01*
X2048Y2283D01*
X1901Y2361D01*
X1741Y2410D01*
X1575Y2426D01*
D02*
G37*
%LPD*%
G36*
X7633Y6078D02*
X7677Y6048D01*
X7730Y6037D01*
X7853D01*
X7855Y6037D01*
X8102D01*
X8543Y5596D01*
X8587Y5567D01*
X8581Y5523D01*
X8579Y5517D01*
X8317D01*
Y5534D01*
X8304Y5596D01*
X8269Y5649D01*
X8023Y5895D01*
X7970Y5931D01*
X7907Y5943D01*
X6125D01*
Y6087D01*
X6792D01*
X6798Y6078D01*
X6842Y6048D01*
X6895Y6037D01*
X7045D01*
X7098Y6048D01*
X7142Y6078D01*
X7148Y6087D01*
X7627D01*
X7633Y6078D01*
D02*
G37*
G36*
X4200Y8355D02*
X4787D01*
Y6885D01*
X4675D01*
Y5943D01*
X2235D01*
X2213Y5965D01*
Y6072D01*
X2222Y6078D01*
X2228Y6087D01*
X2572D01*
X2578Y6078D01*
X2622Y6048D01*
X2675Y6037D01*
X2825D01*
X2878Y6048D01*
X2922Y6078D01*
X2952Y6122D01*
X2953Y6126D01*
X2965Y6135D01*
X2967Y6137D01*
X3020D01*
X3082Y6149D01*
X3135Y6185D01*
X3395Y6445D01*
X3431Y6498D01*
X3443Y6560D01*
Y8102D01*
X4018Y8677D01*
X4200D01*
Y8355D01*
D02*
G37*
D17*
X8660Y6840D02*
D03*
Y6240D02*
D03*
X28210Y10610D02*
D03*
Y11210D02*
D03*
X29220Y10600D02*
D03*
Y11200D02*
D03*
X18590Y11210D02*
D03*
Y10610D02*
D03*
X17570Y11210D02*
D03*
Y10610D02*
D03*
X2750Y6850D02*
D03*
Y6250D02*
D03*
X2050D02*
D03*
Y6850D02*
D03*
X9567Y5210D02*
D03*
Y4610D02*
D03*
X7805Y6850D02*
D03*
Y6250D02*
D03*
X6970Y6850D02*
D03*
Y6250D02*
D03*
X20013Y5210D02*
D03*
Y4610D02*
D03*
X30460D02*
D03*
Y5210D02*
D03*
X24810Y10451D02*
D03*
Y9851D02*
D03*
X14161Y10451D02*
D03*
Y9851D02*
D03*
X22664Y14460D02*
D03*
Y13860D02*
D03*
D18*
X7978Y8212D02*
D03*
X9782Y8212D02*
D03*
D19*
X8880Y10908D02*
D03*
D20*
X28950Y5180D02*
D03*
Y3720D02*
D03*
X8110Y5180D02*
D03*
Y3720D02*
D03*
X18530Y5180D02*
D03*
Y3720D02*
D03*
D21*
X9585Y3245D02*
D03*
X9583Y3875D02*
D03*
X20028Y3245D02*
D03*
X20026Y3875D02*
D03*
X30471Y3245D02*
D03*
X30469Y3875D02*
D03*
X23511Y14438D02*
D03*
X23514Y13809D02*
D03*
D22*
X19850Y6350D02*
D03*
X19250D02*
D03*
X29270D02*
D03*
X29870D02*
D03*
D23*
X12304Y5104D02*
D03*
X12296Y6996D02*
D03*
X22896D02*
D03*
X22904Y5104D02*
D03*
D24*
X27090Y11575D02*
D03*
X26590D02*
D03*
X26090D02*
D03*
X25590D02*
D03*
X27090Y9445D02*
D03*
X26590D02*
D03*
X26090D02*
D03*
X25590D02*
D03*
X16450Y11575D02*
D03*
X15950D02*
D03*
X15450D02*
D03*
X14950D02*
D03*
X16450Y9445D02*
D03*
X15950D02*
D03*
X15450D02*
D03*
X14950D02*
D03*
D25*
X30591Y8270D02*
D03*
X28489D02*
D03*
X18539D02*
D03*
X20641D02*
D03*
D26*
X22940Y9249D02*
D03*
Y11351D02*
D03*
X12300Y9249D02*
D03*
Y11351D02*
D03*
D27*
X24659Y7210D02*
D03*
X27141D02*
D03*
X16771D02*
D03*
X14289D02*
D03*
D28*
X4950Y8840D02*
D03*
D29*
X5850Y6400D02*
D03*
X4950D02*
D03*
X4040D02*
D03*
D54*
X11268Y14440D02*
G03*
X11268Y14440I-538J0D01*
G01*
X14090Y12660D02*
G03*
X14090Y12660I-420J0D01*
G01*
X5913Y10338D02*
G03*
X5533Y10718I-380J0D01*
G01*
Y9958D02*
G03*
X5913Y10338I0J380D01*
G01*
X4627Y10718D02*
G03*
X4627Y9958I0J-380D01*
G01*
X25834Y9707D02*
G03*
X25840Y9742I-104J35D01*
G01*
Y9368D02*
G03*
X25834Y9403I-110J0D01*
G01*
Y9457D02*
G03*
X25840Y9492I-104J35D01*
G01*
Y9875D02*
G03*
X25832Y9917I-110J0D01*
G01*
X25840Y9875D02*
G03*
X25832Y9917I-110J0D01*
G01*
X25825Y9946D02*
G03*
X25795Y10017I-110J-5D01*
G01*
X25825Y9946D02*
G03*
X25795Y10017I-110J-5D01*
G01*
X25834Y9707D02*
G03*
X25840Y9742I-104J35D01*
G01*
Y9618D02*
G03*
X25834Y9653I-110J0D01*
G01*
X25834Y9707D02*
G03*
X25834Y9653I81J-27D01*
G01*
X25840Y9618D02*
G03*
X25834Y9653I-110J0D01*
G01*
Y9457D02*
G03*
X25840Y9492I-104J35D01*
G01*
Y9368D02*
G03*
X25834Y9403I-110J0D01*
G01*
X25834Y9457D02*
G03*
X25834Y9403I81J-27D01*
G01*
X25808Y8927D02*
G03*
X25840Y9005I-78J78D01*
G01*
X25808Y8927D02*
G03*
X25840Y9005I-78J78D01*
G01*
X25715Y9941D02*
G03*
X25730Y9875I195J9D01*
G01*
Y9742D02*
G03*
X25730Y9618I185J-62D01*
G01*
Y9492D02*
G03*
X25730Y9368I185J-62D01*
G01*
X11137Y14791D02*
X15070D01*
X11169Y14751D02*
X15070D01*
X15012Y15508D02*
X15070Y15450D01*
X11099Y14831D02*
X15070D01*
X11233Y14631D02*
X15070D01*
X11246Y14591D02*
X15070D01*
X11194Y14711D02*
X15070D01*
X11215Y14671D02*
X15070D01*
X2751Y15351D02*
X15070D01*
X2740Y15031D02*
X15070D01*
X2831Y15431D02*
X15070D01*
X2791Y15391D02*
X15070D01*
X10989Y14911D02*
X15070D01*
X11051Y14871D02*
X15070D01*
X10897Y14951D02*
X15070D01*
X11267Y14471D02*
X15070D01*
X11268Y14431D02*
X15070D01*
X11256Y14551D02*
X15070D01*
X11263Y14511D02*
X15070D01*
X11252Y14311D02*
X15070D01*
X11241Y14271D02*
X15070D01*
X11266Y14391D02*
X15070D01*
X11260Y14351D02*
X15070D01*
X11184Y14151D02*
X15070D01*
X11156Y14111D02*
X15070D01*
X11226Y14231D02*
X15070D01*
X11207Y14191D02*
X15070D01*
X2740Y13471D02*
X15070D01*
X2740Y13431D02*
X15070D01*
X2740Y13511D02*
X15070D01*
X11121Y14071D02*
X15070D01*
X11079Y14031D02*
X15070D01*
X2911Y15511D02*
X15009D01*
X2908Y15508D02*
X15012D01*
X11026Y13991D02*
X15070D01*
X10954Y13951D02*
X15070D01*
X10828Y13911D02*
X15070D01*
X2871Y15471D02*
X15049D01*
X2740Y13951D02*
X10506D01*
X2740Y14831D02*
X10361D01*
X2740Y14791D02*
X10323D01*
X2740Y13871D02*
X15070D01*
X2740Y13831D02*
X15070D01*
X2740Y13911D02*
X10632D01*
X2740Y13311D02*
X15070D01*
X2740Y13271D02*
X15070D01*
X2740Y13391D02*
X15070D01*
X2740Y13351D02*
X15070D01*
X2740Y13191D02*
X15070D01*
X13753Y13071D02*
X15070D01*
X2740Y13231D02*
X15070D01*
X2740Y13711D02*
X15070D01*
X2740Y13671D02*
X15070D01*
X2740Y13791D02*
X15070D01*
X2740Y13751D02*
X15070D01*
X2740Y13591D02*
X15070D01*
X2740Y13551D02*
X15070D01*
X2740Y13631D02*
X15070D01*
X14087Y12711D02*
X15070D01*
X14089Y12671D02*
X15070D01*
X14069Y12791D02*
X15070D01*
X14080Y12751D02*
X15070D01*
Y12340D02*
Y15450D01*
X14075Y12551D02*
X15070D01*
X14089Y12631D02*
X15070D01*
X14084Y12591D02*
X15070D01*
X13972Y12951D02*
X15070D01*
X14006Y12911D02*
X15070D01*
X13866Y13031D02*
X15070D01*
X13928Y12991D02*
X15070D01*
X14033Y12871D02*
X15070D01*
X14053Y12831D02*
X15070D01*
X14022Y12431D02*
X15070D01*
X13992Y12391D02*
X15070D01*
X14062Y12511D02*
X15070D01*
X14045Y12471D02*
X15070D01*
X13954Y12351D02*
X15070D01*
X14920Y12190D02*
X15070Y12340D01*
X13903Y12311D02*
X15041D01*
X13828Y12271D02*
X15001D01*
X10170Y12050D02*
X10310Y12190D01*
X14920D01*
X5604Y10711D02*
X10170D01*
X5716Y10671D02*
X10170D01*
X10170Y9720D02*
X10170Y12050D01*
X5816Y10591D02*
X10170D01*
X5775Y10631D02*
X10170D01*
X5889Y10471D02*
X10170D01*
X5901Y10431D02*
X10170D01*
X5909Y10391D02*
X10170D01*
X5913Y10351D02*
X10170D01*
X5898Y10231D02*
X10170D01*
X5884Y10191D02*
X10170D01*
X5912Y10311D02*
X10170D01*
X5907Y10271D02*
X10170D01*
X5847Y10551D02*
X10170D01*
X5871Y10511D02*
X10170D01*
X4627Y10718D02*
X5533D01*
X5864Y10151D02*
X10170D01*
X5758Y10031D02*
X10170D01*
X5689Y9991D02*
X10170D01*
X5838Y10111D02*
X10170D01*
X5804Y10071D02*
X10170D01*
X10020Y9570D02*
X10170Y9720D01*
X3020Y9570D02*
X10020Y9570D01*
X4627Y9958D02*
X5533D01*
X2759Y9831D02*
X10170D01*
X2799Y9791D02*
X10170D01*
X2839Y9751D02*
X10170D01*
X2879Y9711D02*
X10161D01*
X2919Y9671D02*
X10121D01*
X2959Y9631D02*
X10081D01*
X2999Y9591D02*
X10041D01*
X2740Y14991D02*
X15070D01*
X2740Y13151D02*
X15070D01*
X2740Y13111D02*
X15070D01*
X2740Y13071D02*
X13587D01*
X2740Y13031D02*
X13474D01*
X2740Y12991D02*
X13412D01*
X2740Y12951D02*
X13368D01*
X2740Y12911D02*
X13334D01*
X2740Y15231D02*
X15070D01*
X2740Y15191D02*
X15070D01*
X2740Y15311D02*
X15070D01*
X2740Y15271D02*
X15070D01*
X2740Y15111D02*
X15070D01*
X2740Y15071D02*
X15070D01*
X2740Y15151D02*
X15070D01*
X2740Y12391D02*
X13348D01*
X2740Y12351D02*
X13386D01*
X2740Y12471D02*
X13295D01*
X2740Y12431D02*
X13318D01*
X2740Y12231D02*
X14961D01*
X2740Y12191D02*
X14921D01*
X2740Y12311D02*
X13437D01*
X2740Y12271D02*
X13512D01*
X2740Y12871D02*
X13307D01*
X2740Y12831D02*
X13287D01*
X2740Y12791D02*
X13271D01*
X2740Y12751D02*
X13260D01*
X2740Y12551D02*
X13265D01*
X2740Y12511D02*
X13278D01*
X2740Y12591D02*
X13256D01*
X2740Y14631D02*
X10227D01*
X2740Y14591D02*
X10214D01*
X2740Y14551D02*
X10204D01*
X2740Y14511D02*
X10197D01*
X2740Y14391D02*
X10194D01*
X2740Y14351D02*
X10200D01*
X2740Y14471D02*
X10193D01*
X2740Y14431D02*
X10192D01*
X2740Y14951D02*
X10563D01*
X2740Y14911D02*
X10471D01*
X2740Y15340D02*
X2908Y15508D01*
X2740Y14871D02*
X10409D01*
X2740Y14751D02*
X10291D01*
X2740Y14711D02*
X10266D01*
X2740Y14671D02*
X10245D01*
X2740Y12711D02*
X13254D01*
X2740Y12671D02*
X13251D01*
X2740Y14031D02*
X10381D01*
X2740Y13991D02*
X10434D01*
X2740Y12631D02*
X13251D01*
X2740Y12151D02*
X10271D01*
X2740Y12111D02*
X10231D01*
X2740Y14231D02*
X10234D01*
X2740Y14191D02*
X10253D01*
X2740Y14311D02*
X10208D01*
X2740Y14271D02*
X10219D01*
X2740Y14111D02*
X10304D01*
X2740Y14071D02*
X10339D01*
X2740Y14151D02*
X10276D01*
X2740Y11711D02*
X10170D01*
X2740Y11671D02*
X10170D01*
X2740Y11791D02*
X10170D01*
X2740Y11751D02*
X10170D01*
X2740Y11551D02*
X10170D01*
X2740Y11511D02*
X10170D01*
X2740Y11631D02*
X10170D01*
X2740Y11591D02*
X10170D01*
X2740Y12071D02*
X10191D01*
X2740Y12031D02*
X10170D01*
X2740Y11991D02*
X10170D01*
X2740Y11951D02*
X10170D01*
X2740Y11871D02*
X10170D01*
X2740Y11831D02*
X10170D01*
X2740Y11911D02*
X10170D01*
X2740Y11111D02*
X10170D01*
X2740Y11071D02*
X10170D01*
X2740Y11191D02*
X10170D01*
X2740Y11151D02*
X10170D01*
X2740Y10991D02*
X10170D01*
X2740Y10951D02*
X10170D01*
X2740Y11031D02*
X10170D01*
X2740Y11391D02*
X10170D01*
X2740Y11351D02*
X10170D01*
X2740Y11471D02*
X10170D01*
X2740Y11431D02*
X10170D01*
X2740Y11271D02*
X10170D01*
X2740Y11231D02*
X10170D01*
X2740Y11311D02*
X10170D01*
X2740Y10671D02*
X4444D01*
X2740Y10631D02*
X4385D01*
X2740Y10591D02*
X4344D01*
X2740Y10551D02*
X4313D01*
X2740Y10511D02*
X4289D01*
X2740Y10471D02*
X4271D01*
X2740Y10431D02*
X4259D01*
X2740Y10391D02*
X4251D01*
X2740Y10911D02*
X10170D01*
X2740Y10871D02*
X10170D01*
X2740Y10831D02*
X10170D01*
X2740Y10791D02*
X10170D01*
X2740Y10751D02*
X10170D01*
X2740Y10711D02*
X4556D01*
X2740Y9850D02*
Y15340D01*
Y9991D02*
X4471D01*
X2740Y9951D02*
X10170D01*
X2740Y10071D02*
X4356D01*
X2740Y10031D02*
X4402D01*
X2740Y9911D02*
X10170D01*
X2740Y9871D02*
X10170D01*
X2740Y9850D02*
X3020Y9570D01*
X2740Y10271D02*
X4253D01*
X2740Y10231D02*
X4262D01*
X2740Y10351D02*
X4247D01*
X2740Y10311D02*
X4248D01*
X2740Y10151D02*
X4296D01*
X2740Y10111D02*
X4322D01*
X2740Y10191D02*
X4276D01*
X29220Y8620D02*
X29400Y8440D01*
X28084Y6431D02*
X29400D01*
X28124Y6391D02*
X29400D01*
X28125Y6351D02*
X29400D01*
X28004Y6511D02*
X29400D01*
X27964Y6551D02*
X29400D01*
X28044Y6471D02*
X29400D01*
X28125Y6271D02*
X29400D01*
X28125Y6311D02*
X29400D01*
X28125Y6191D02*
X29400D01*
X28125Y6231D02*
X29400D01*
X28125Y6111D02*
X29400D01*
X28125Y6151D02*
X29400D01*
X28125Y6071D02*
X29400D01*
X27880Y8620D02*
X29220Y8620D01*
X27925Y6590D02*
X28125Y6390D01*
X28125Y5991D02*
X29400D01*
X28125Y6031D02*
X29400D01*
X27811Y8551D02*
X29289D01*
X27851Y8591D02*
X29249D01*
X27771Y8511D02*
X29329D01*
X28125Y5911D02*
X29400D01*
X28125Y5951D02*
X29400D01*
X28125Y5831D02*
X29400D01*
X28125Y5871D02*
X29400D01*
X28125Y5751D02*
X29400D01*
X28125Y5791D02*
X29400D01*
X28125Y5711D02*
X29400D01*
X28125Y5631D02*
X29400D01*
X28125Y5671D02*
X29400D01*
X29400Y4920D02*
X29400Y8440D01*
X28125Y5591D02*
X29400D01*
X28125Y5511D02*
X29400D01*
X28125Y5551D02*
X29400D01*
X28125Y5471D02*
X29400D01*
X28125Y5431D02*
X29400D01*
X28125Y5391D02*
X29400D01*
X28125Y5311D02*
X29400D01*
X28125Y5351D02*
X29400D01*
X28125Y5231D02*
X29400D01*
X28125Y5271D02*
X29400D01*
X28125Y5191D02*
X29400D01*
X28125Y5111D02*
X29400D01*
X28125Y5151D02*
X29400D01*
X28125Y4991D02*
X29400D01*
X28125Y5071D02*
X29400D01*
X28125Y4951D02*
X29400D01*
X28125Y5031D02*
X29400D01*
X28125Y4880D02*
X28125Y6390D01*
X28174Y4831D02*
X29311D01*
X28205Y4800D02*
X29280Y4800D01*
X29400Y4920D01*
X28125Y4911D02*
X29391D01*
X28134Y4871D02*
X29351D01*
X28125Y4880D02*
X28205Y4800D01*
X27700Y8311D02*
X29400D01*
X27700Y8271D02*
X29400D01*
X27700Y8191D02*
X29400D01*
X27700Y8231D02*
X29400D01*
X27700Y8391D02*
X29400D01*
X27700Y8431D02*
X29400D01*
X27700Y8351D02*
X29400D01*
X27700Y8111D02*
X29400D01*
X27700Y8151D02*
X29400D01*
X27700Y8031D02*
X29400D01*
X27700Y8071D02*
X29400D01*
X27700Y7991D02*
X29400D01*
X27300Y7831D02*
X29400D01*
X27300Y7791D02*
X29400D01*
X27731Y8471D02*
X29369D01*
X27700Y8440D02*
X27880Y8620D01*
X27661Y7951D02*
X29400D01*
X27700Y8440D02*
X27700Y7990D01*
X27581Y7871D02*
X29400D01*
X27621Y7911D02*
X29400D01*
X27560Y7850D02*
X27700Y7990D01*
X27300Y7671D02*
X29400D01*
X27300Y7631D02*
X29400D01*
X27300Y7591D02*
X29400D01*
X27300Y7751D02*
X29400D01*
X27300Y7850D02*
X27560Y7850D01*
X27300Y7711D02*
X29400D01*
X27300Y7391D02*
X29400D01*
X27300Y7431D02*
X29400D01*
X27300Y7351D02*
X29400D01*
X27300Y7311D02*
X29400D01*
X27300Y7511D02*
X29400D01*
X27300Y7551D02*
X29400D01*
X27300Y7471D02*
X29400D01*
X27300Y7111D02*
X29400D01*
X27300Y7151D02*
X29400D01*
X27300Y7031D02*
X29400D01*
X27300Y7071D02*
X29400D01*
X27300Y7231D02*
X29400D01*
X27300Y7271D02*
X29400D01*
X27300Y7191D02*
X29400D01*
X27300Y6871D02*
X29400D01*
X27300Y6911D02*
X29400D01*
X27300Y6791D02*
X29400D01*
X27300Y6831D02*
X29400D01*
X27300Y6951D02*
X29400D01*
X27300Y6991D02*
X29400D01*
X27300Y6590D02*
Y7850D01*
Y6591D02*
X29400D01*
X27300Y6631D02*
X29400D01*
X27300Y6590D02*
X27925D01*
X27300Y6711D02*
X29400D01*
X27300Y6751D02*
X29400D01*
X27300Y6671D02*
X29400D01*
X17741Y8551D02*
X19370D01*
X19290Y8640D02*
X19370Y8560D01*
X17720Y8471D02*
X19370D01*
X17720Y8511D02*
X19370D01*
X17720Y8391D02*
X19370D01*
X17720Y8431D02*
X19370D01*
X17720Y8351D02*
X19370D01*
X17720Y8271D02*
X19370D01*
X17720Y8311D02*
X19370D01*
X17720Y8191D02*
X19370D01*
X17720Y8231D02*
X19370D01*
X17720Y6231D02*
X19370D01*
X17720Y8151D02*
X19370D01*
X17720Y6191D02*
X19370D01*
X17821Y8631D02*
X19299D01*
X17830Y8640D02*
X19290D01*
X17781Y8591D02*
X19339D01*
X17720Y8530D02*
X17830Y8640D01*
X17720Y8071D02*
X19370D01*
X17720Y8111D02*
X19370D01*
X17720Y8030D02*
Y8530D01*
X17720Y6351D02*
X19370D01*
X17720Y8031D02*
X19370D01*
X17720Y6271D02*
X19370D01*
X17720Y6311D02*
X19370D01*
X17720Y6111D02*
X19370D01*
X17720Y6151D02*
X19370D01*
X17720Y6071D02*
X19370D01*
X17720Y5991D02*
X19370D01*
X17720Y6031D02*
X19370D01*
X17720Y5911D02*
X19370D01*
X17720Y5951D02*
X19370D01*
X17720Y5831D02*
X19370D01*
X17720Y5871D02*
X19370D01*
X17720Y5791D02*
X19370D01*
X17720Y5711D02*
X19370D01*
X17720Y5751D02*
X19370D01*
X17720Y5631D02*
X19370D01*
X17720Y5671D02*
X19370D01*
X17720Y5551D02*
X19370D01*
X17720Y5591D02*
X19370D01*
X17720Y5511D02*
X19370D01*
X17720Y5431D02*
X19370D01*
X17720Y5471D02*
X19370D01*
Y4920D02*
Y8560D01*
X17720Y5391D02*
X19370D01*
X17720Y5311D02*
X19370D01*
X17720Y5351D02*
X19370D01*
X17720Y5271D02*
X19370D01*
X19250Y4800D02*
X19370Y4920D01*
X17769Y4831D02*
X19281D01*
X17800Y4800D02*
X19250Y4800D01*
X17720Y5191D02*
X19370D01*
X17720Y5231D02*
X19370D01*
X17729Y4871D02*
X19321D01*
X17641Y7951D02*
X19370D01*
X17681Y7991D02*
X19370D01*
X17561Y7871D02*
X19370D01*
X17601Y7911D02*
X19370D01*
X16930Y7791D02*
X19370D01*
X16930Y7831D02*
X19370D01*
X16930Y7751D02*
X19370D01*
X16930Y7551D02*
X19370D01*
X16930Y7591D02*
X19370D01*
X16930Y7111D02*
X19370D01*
X16930Y7511D02*
X19370D01*
X16930Y7671D02*
X19370D01*
X16930Y7711D02*
X19370D01*
X16930Y7631D02*
X19370D01*
X17540Y7850D02*
X17720Y8030D01*
X16930Y7850D02*
X17540Y7850D01*
X16930Y7431D02*
X19370D01*
X16930Y7471D02*
X19370D01*
X16930Y7351D02*
X19370D01*
X16930Y7391D02*
X19370D01*
X16930Y7311D02*
X19370D01*
X16930Y7071D02*
X19370D01*
X16930Y7151D02*
X19370D01*
X16930Y6991D02*
X19370D01*
X16930Y7031D02*
X19370D01*
X16930Y7231D02*
X19370D01*
X16930Y7271D02*
X19370D01*
X16930Y7191D02*
X19370D01*
X16930Y6791D02*
X19370D01*
X16930Y6831D02*
X19370D01*
X16930Y6711D02*
X19370D01*
X16930Y6751D02*
X19370D01*
X16930Y6911D02*
X19370D01*
X16930Y6951D02*
X19370D01*
X16930Y6871D02*
X19370D01*
X17599Y6511D02*
X19370D01*
X17559Y6551D02*
X19370D01*
X17720Y5071D02*
X19370D01*
X17639Y6471D02*
X19370D01*
X16930Y6631D02*
X19370D01*
X16930Y6671D02*
X19370D01*
X16930Y6591D02*
X19370D01*
X17719Y6391D02*
X19370D01*
X17679Y6431D02*
X19370D01*
X17720Y5151D02*
X19370D01*
X17720Y4880D02*
X17720Y6390D01*
X16930Y6590D02*
X17520D01*
X16930D02*
Y7850D01*
X17520Y6590D02*
X17720Y6390D01*
X17720Y5031D02*
X19370D01*
X17720Y5111D02*
X19370D01*
X17720Y4991D02*
X19370D01*
X17720Y4951D02*
X19370D01*
X17720Y4911D02*
X19361D01*
X17720Y4880D02*
X17800Y4800D01*
X5145Y4791D02*
X7095D01*
X5145Y5031D02*
X7095D01*
Y4240D02*
Y5250D01*
X5145Y4751D02*
X7095D01*
X5145Y4711D02*
X7095D01*
X5145Y4551D02*
X7095D01*
X5145Y4511D02*
X7095D01*
X5145Y4671D02*
X7095D01*
X5145Y4591D02*
X7095D01*
X5395Y5460D02*
X6885D01*
X7095Y5250D01*
X5366Y5431D02*
X6914D01*
X5326Y5391D02*
X6954D01*
X5286Y5351D02*
X6994D01*
X5246Y5311D02*
X7034D01*
X5206Y5271D02*
X7074D01*
X5166Y5231D02*
X7095D01*
X8845Y4060D02*
X8945Y3960D01*
Y3400D02*
Y3960D01*
X5145Y3671D02*
X8945D01*
X5145Y3631D02*
X8945D01*
X5214Y3431D02*
X8945D01*
X8825Y3280D02*
X8945Y3400D01*
X5145Y3591D02*
X8945D01*
X5174Y3471D02*
X8945D01*
X7095Y4240D02*
X7275Y4060D01*
X8845D01*
X5145Y4031D02*
X8874D01*
X5145Y3500D02*
Y5210D01*
X5334Y3311D02*
X8856D01*
X5365Y3280D02*
X8825D01*
X5254Y3391D02*
X8936D01*
X5294Y3351D02*
X8896D01*
X5145Y4471D02*
X7095D01*
X5145Y4631D02*
X7095D01*
X5145Y4431D02*
X7095D01*
X5145Y4871D02*
X7095D01*
X5145Y4831D02*
X7095D01*
X5145Y4311D02*
X7095D01*
X5145Y4271D02*
X7095D01*
X5145Y4391D02*
X7095D01*
X5145Y4351D02*
X7095D01*
X5145Y5151D02*
X7095D01*
X5145Y5111D02*
X7095D01*
X5145Y5210D02*
X5395Y5460D01*
X5145Y5191D02*
X7095D01*
X5145Y4951D02*
X7095D01*
X5145Y4911D02*
X7095D01*
X5145Y5071D02*
X7095D01*
X5145Y4991D02*
X7095D01*
X5145Y3871D02*
X8945D01*
X5145Y3831D02*
X8945D01*
X5145Y3951D02*
X8945D01*
X5145Y3911D02*
X8945D01*
X5145Y3551D02*
X8945D01*
X5145Y3511D02*
X8945D01*
X5145Y3791D02*
X8945D01*
X5145Y3751D02*
X8945D01*
X5145Y4151D02*
X7184D01*
X5145Y4111D02*
X7224D01*
X5145Y4231D02*
X7104D01*
X5145Y4191D02*
X7144D01*
X5145Y3711D02*
X8945D01*
X5145Y3500D02*
X5365Y3280D01*
X5145Y4071D02*
X7264D01*
X5145Y3991D02*
X8914D01*
X25955Y4791D02*
X27905D01*
X25955Y5031D02*
X27905D01*
Y4240D02*
Y5250D01*
X25955Y4751D02*
X27905D01*
X25955Y4711D02*
X27905D01*
X25955Y4551D02*
X27905D01*
X25955Y4511D02*
X27905D01*
X25955Y4671D02*
X27905D01*
X25955Y4591D02*
X27905D01*
X26205Y5460D02*
X27695D01*
X27905Y5250D01*
X26176Y5431D02*
X27724D01*
X26136Y5391D02*
X27764D01*
X26096Y5351D02*
X27804D01*
X26056Y5311D02*
X27844D01*
X26016Y5271D02*
X27884D01*
X25976Y5231D02*
X27905D01*
X29655Y4060D02*
X29755Y3960D01*
Y3400D02*
Y3960D01*
X25955Y3671D02*
X29755D01*
X25955Y3631D02*
X29755D01*
X26024Y3431D02*
X29755D01*
X29635Y3280D02*
X29755Y3400D01*
X25955Y3591D02*
X29755D01*
X25984Y3471D02*
X29755D01*
X27905Y4240D02*
X28085Y4060D01*
X29655D01*
X25955Y4031D02*
X29684D01*
X25955Y3500D02*
Y5210D01*
X26144Y3311D02*
X29666D01*
X26175Y3280D02*
X29635D01*
X26064Y3391D02*
X29746D01*
X26104Y3351D02*
X29706D01*
X25955Y4471D02*
X27905D01*
X25955Y4631D02*
X27905D01*
X25955Y4431D02*
X27905D01*
X25955Y4871D02*
X27905D01*
X25955Y4831D02*
X27905D01*
X25955Y4311D02*
X27905D01*
X25955Y4271D02*
X27905D01*
X25955Y4391D02*
X27905D01*
X25955Y4351D02*
X27905D01*
X25955Y5151D02*
X27905D01*
X25955Y5111D02*
X27905D01*
X25955Y5210D02*
X26205Y5460D01*
X25955Y5191D02*
X27905D01*
X25955Y4951D02*
X27905D01*
X25955Y4911D02*
X27905D01*
X25955Y5071D02*
X27905D01*
X25955Y4991D02*
X27905D01*
X25955Y3871D02*
X29755D01*
X25955Y3831D02*
X29755D01*
X25955Y3951D02*
X29755D01*
X25955Y3911D02*
X29755D01*
X25955Y3551D02*
X29755D01*
X25955Y3511D02*
X29755D01*
X25955Y3791D02*
X29755D01*
X25955Y3751D02*
X29755D01*
X25955Y4151D02*
X27994D01*
X25955Y4111D02*
X28034D01*
X25955Y4231D02*
X27914D01*
X25955Y4191D02*
X27954D01*
X25955Y3711D02*
X29755D01*
X25955Y3500D02*
X26175Y3280D01*
X25955Y4071D02*
X28074D01*
X25955Y3991D02*
X29724D01*
X15550Y4791D02*
X17500D01*
X15550Y5031D02*
X17500D01*
Y4240D02*
Y5250D01*
X15550Y4751D02*
X17500D01*
X15550Y4711D02*
X17500D01*
X15550Y4551D02*
X17500D01*
X15550Y4511D02*
X17500D01*
X15550Y4671D02*
X17500D01*
X15550Y4591D02*
X17500D01*
X15800Y5460D02*
X17290D01*
X17500Y5250D01*
X15771Y5431D02*
X17319D01*
X15731Y5391D02*
X17359D01*
X15691Y5351D02*
X17399D01*
X15651Y5311D02*
X17439D01*
X15611Y5271D02*
X17479D01*
X15571Y5231D02*
X17500D01*
X19250Y4060D02*
X19350Y3960D01*
Y3400D02*
Y3960D01*
X15550Y3671D02*
X19350D01*
X15550Y3631D02*
X19350D01*
X15619Y3431D02*
X19350D01*
X19230Y3280D02*
X19350Y3400D01*
X15550Y3591D02*
X19350D01*
X15579Y3471D02*
X19350D01*
X17500Y4240D02*
X17680Y4060D01*
X19250D01*
X15550Y4031D02*
X19279D01*
X15550Y3500D02*
Y5210D01*
X15739Y3311D02*
X19261D01*
X15770Y3280D02*
X19230D01*
X15659Y3391D02*
X19341D01*
X15699Y3351D02*
X19301D01*
X15550Y4471D02*
X17500D01*
X15550Y4631D02*
X17500D01*
X15550Y4431D02*
X17500D01*
X15550Y4871D02*
X17500D01*
X15550Y4831D02*
X17500D01*
X15550Y4311D02*
X17500D01*
X15550Y4271D02*
X17500D01*
X15550Y4391D02*
X17500D01*
X15550Y4351D02*
X17500D01*
X15550Y5151D02*
X17500D01*
X15550Y5111D02*
X17500D01*
X15550Y5210D02*
X15800Y5460D01*
X15550Y5191D02*
X17500D01*
X15550Y4951D02*
X17500D01*
X15550Y4911D02*
X17500D01*
X15550Y5071D02*
X17500D01*
X15550Y4991D02*
X17500D01*
X15550Y3871D02*
X19350D01*
X15550Y3831D02*
X19350D01*
X15550Y3951D02*
X19350D01*
X15550Y3911D02*
X19350D01*
X15550Y3551D02*
X19350D01*
X15550Y3511D02*
X19350D01*
X15550Y3791D02*
X19350D01*
X15550Y3751D02*
X19350D01*
X15550Y4151D02*
X17589D01*
X15550Y4111D02*
X17629D01*
X15550Y4231D02*
X17509D01*
X15550Y4191D02*
X17549D01*
X15550Y3711D02*
X19350D01*
X15550Y3500D02*
X15770Y3280D01*
X15550Y4071D02*
X17669D01*
X15550Y3991D02*
X19319D01*
X26285Y10150D02*
X26355Y10080D01*
X25840Y9871D02*
X26355D01*
X25840Y9831D02*
X26355D01*
X25840Y9791D02*
X26355D01*
X25840Y9751D02*
X26355D01*
X25839Y9631D02*
X26355D01*
X25836Y9711D02*
X26355D01*
X25838Y9471D02*
X26355D01*
X25905Y10150D02*
X26285Y10150D01*
X25866Y10111D02*
X26324D01*
X25840Y9742D02*
Y9875D01*
Y9551D02*
X26355D01*
X25840Y9511D02*
X26355D01*
X25840Y9591D02*
X26355D01*
X25840Y9492D02*
Y9618D01*
Y9351D02*
X26355D01*
Y8700D02*
X26355Y10080D01*
X25838Y9391D02*
X26355D01*
X25840Y9311D02*
X26355D01*
X25840Y9191D02*
X26355D01*
X25840Y9151D02*
X26355D01*
X25840Y9271D02*
X26355D01*
X25840Y9231D02*
X26355D01*
X25840Y9111D02*
X26355D01*
X25840Y9071D02*
X26355D01*
X25840Y9005D02*
Y9368D01*
X25855Y8650D02*
X26305D01*
X26355Y8700D01*
X25840Y9031D02*
X26355D01*
X25839Y8991D02*
X26355D01*
X25826Y10071D02*
X26355D01*
X25813Y9991D02*
X26355D01*
X25795Y10040D02*
X25905Y10150D01*
X25795Y10031D02*
X26355D01*
X25834Y9911D02*
X26355D01*
X25825Y9951D02*
X26355D01*
X25830Y9671D02*
X26355D01*
X25830Y9431D02*
X26355D01*
X25826Y8951D02*
X26355D01*
X25795Y8911D02*
X26355D01*
X25795Y8871D02*
X26355D01*
X25795Y8751D02*
X26355D01*
X25795Y8711D02*
X26355D01*
X25795Y8831D02*
X26355D01*
X25795Y8791D02*
X26355D01*
X25834Y8671D02*
X26326D01*
X25795Y8710D02*
Y8914D01*
Y8710D02*
X25855Y8650D01*
X25730Y9742D02*
Y9875D01*
X21630Y9911D02*
X25719D01*
X21630Y9871D02*
X25730D01*
X21630Y9791D02*
X25730D01*
X21630Y9751D02*
X25730D01*
X21630Y9831D02*
X25730D01*
X21710Y10050D02*
X25606Y10050D01*
X25715Y9941D01*
X21630Y9970D02*
X21710Y10050D01*
X21691Y10031D02*
X25625D01*
X21651Y9991D02*
X25665D01*
X21630Y9951D02*
X25705D01*
X25730Y9492D02*
Y9618D01*
X21630Y9711D02*
X25723D01*
X21630Y9671D02*
X25720D01*
X25730Y9005D02*
Y9368D01*
X25555Y8830D02*
X25730Y9005D01*
X23435Y8830D02*
X25555D01*
X23165Y8560D02*
X23435Y8830D01*
X21659Y8671D02*
X23276D01*
X21739Y8591D02*
X23196D01*
X21770Y8560D02*
X23165D01*
X21699Y8631D02*
X23236D01*
X21630Y9591D02*
X25730D01*
X21630Y9551D02*
X25730D01*
X21630Y9511D02*
X25730D01*
X21630Y9351D02*
X25730D01*
X21630Y9311D02*
X25730D01*
X21630Y9191D02*
X25730D01*
X21630Y9151D02*
X25730D01*
X21630Y9631D02*
X25726D01*
X21630Y9471D02*
X25724D01*
X21630Y9431D02*
X25720D01*
X21630Y9271D02*
X25730D01*
X21630Y9231D02*
X25730D01*
X21630Y9391D02*
X25724D01*
X21630Y9111D02*
X25730D01*
X21630Y9071D02*
X25730D01*
X21630Y9031D02*
X25730D01*
X21630Y8991D02*
X25716D01*
X21630Y8911D02*
X25636D01*
X21630Y8871D02*
X25596D01*
X21630Y8951D02*
X25676D01*
X21630Y8831D02*
X25556D01*
X21630Y8700D02*
X21630Y9970D01*
X21630Y8791D02*
X23396D01*
X21630Y8711D02*
X23316D01*
X21630Y8700D02*
X21770Y8560D01*
X21630Y8751D02*
X23356D01*
X22490Y7820D02*
X24500D01*
X22461Y7791D02*
X24500D01*
X22421Y7751D02*
X24500D01*
X22406Y7591D02*
X24500D01*
X22406Y7711D02*
X24500D01*
X22406Y7671D02*
X24500D01*
X22406Y7736D02*
X22490Y7820D01*
X22406Y7631D02*
X24500D01*
X22406Y7551D02*
X24500D01*
X22406Y7271D02*
X24500D01*
Y6600D02*
Y7820D01*
X22406Y7231D02*
X24500D01*
X22475Y6600D02*
X24500Y6600D01*
X22444Y6631D02*
X24500D01*
X22406Y7391D02*
X24500D01*
X22406Y7511D02*
X24500D01*
X22406Y7311D02*
X24500D01*
X22406Y7351D02*
X24500D01*
X22406Y7071D02*
X24500D01*
X22406Y7031D02*
X24500D01*
X22406Y7111D02*
X24500D01*
X22406Y6951D02*
X24500D01*
X22406Y6991D02*
X24500D01*
X22406Y7431D02*
X24500D01*
X22406Y7471D02*
X24500D01*
X22406Y7151D02*
X24500D01*
X22406Y7191D02*
X24500D01*
X22406Y6911D02*
X24500D01*
X22406Y6871D02*
X24500D01*
X22406Y6831D02*
X24500D01*
X22406Y6751D02*
X24500D01*
X22406Y6791D02*
X24500D01*
X22406Y6711D02*
X24500D01*
X22406Y6669D02*
X22406Y7736D01*
X22406Y6669D02*
X22475Y6600D01*
X22406Y6671D02*
X24500D01*
X15660Y10150D02*
X15730Y10080D01*
X15201Y10071D02*
X15730D01*
X15170Y10031D02*
X15730D01*
X15170Y9951D02*
X15730D01*
X15170Y9831D02*
X15730D01*
X15170Y9991D02*
X15730D01*
X15280Y10150D02*
X15660Y10150D01*
X15241Y10111D02*
X15699D01*
X15170Y10040D02*
X15280Y10150D01*
X15170Y9871D02*
X15730D01*
X15170Y9791D02*
X15730D01*
X15170Y9911D02*
X15730D01*
X15170Y9751D02*
X15730D01*
X15730Y8700D02*
X15730Y10080D01*
X15170Y9711D02*
X15730D01*
X15170Y9471D02*
X15730D01*
X15170Y9431D02*
X15730D01*
X15170Y9511D02*
X15730D01*
X15170Y9071D02*
X15730D01*
X15680Y8650D02*
X15730Y8700D01*
X15170Y9351D02*
X15730D01*
X15230Y8650D02*
X15680D01*
X15209Y8671D02*
X15701D01*
X15170Y9631D02*
X15730D01*
X15170Y9591D02*
X15730D01*
X15170Y9671D02*
X15730D01*
X15170Y9391D02*
X15730D01*
X15170Y9311D02*
X15730D01*
X15170Y9551D02*
X15730D01*
X15170Y9231D02*
X15730D01*
X15170Y9191D02*
X15730D01*
X15170Y9271D02*
X15730D01*
X15170Y9111D02*
X15730D01*
X15170Y9151D02*
X15730D01*
X15170Y8991D02*
X15730D01*
X15170Y8951D02*
X15730D01*
X15170Y9031D02*
X15730D01*
X15170Y8871D02*
X15730D01*
X15170Y8831D02*
X15730D01*
X15170Y8911D02*
X15730D01*
X15170Y8791D02*
X15730D01*
X15170Y8751D02*
X15730D01*
X15170Y8710D02*
X15170Y10040D01*
X15170Y8710D02*
X15230Y8650D01*
X15170Y8711D02*
X15730D01*
X11850Y7820D02*
X14130Y7820D01*
X11821Y7791D02*
X14130D01*
X11781Y7751D02*
X14130D01*
X11781Y7671D02*
X14130D01*
X11781Y7711D02*
X14130D01*
X11781Y7631D02*
X14130D01*
X11781Y7591D02*
X14130D01*
X11781Y7751D02*
X11850Y7820D01*
X11781Y7511D02*
X14130D01*
X11781Y7551D02*
X14130D01*
X11819Y6631D02*
X14130D01*
Y6590D02*
Y7820D01*
X11781Y7231D02*
X14130D01*
X11860Y6590D02*
X14130Y6590D01*
X11859Y6591D02*
X14130D01*
X11781Y7351D02*
X14130D01*
X11781Y7471D02*
X14130D01*
X11781Y7271D02*
X14130D01*
X11781Y7311D02*
X14130D01*
X11781Y7071D02*
X14130D01*
X11781Y7031D02*
X14130D01*
X11781Y7111D02*
X14130D01*
X11781Y6951D02*
X14130D01*
X11781Y6991D02*
X14130D01*
X11781Y7391D02*
X14130D01*
X11781Y7431D02*
X14130D01*
X11781Y7151D02*
X14130D01*
X11781Y7191D02*
X14130D01*
X11781Y6871D02*
X14130D01*
X11781Y6831D02*
X14130D01*
X11781Y6911D02*
X14130D01*
X11781Y6751D02*
X14130D01*
X11781Y6791D02*
X14130D01*
X11781Y6711D02*
X14130D01*
X11781Y6669D02*
X11781Y7751D01*
X11781Y6669D02*
X11860Y6590D01*
X11781Y6671D02*
X14130D01*
X14951Y10080D02*
X15030Y10001D01*
Y8930D02*
Y10001D01*
X11071Y9991D02*
X15030D01*
X11031Y9951D02*
X15030D01*
X11030Y9031D02*
X15030D01*
X11030Y8991D02*
X15030D01*
X11160Y10080D02*
X14951D01*
X11151Y10071D02*
X14960D01*
X11111Y10031D02*
X15000D01*
X11030Y8911D02*
X15011D01*
X11030Y8871D02*
X14971D01*
X11030Y8951D02*
X15030D01*
X12810Y8830D02*
X14930D01*
X15030Y8930D01*
X11030Y8831D02*
X14931D01*
X11030Y8791D02*
X12771D01*
X12540Y8560D02*
X12810Y8830D01*
X11030Y8751D02*
X12731D01*
X11049Y8711D02*
X12691D01*
X11089Y8671D02*
X12651D01*
X11030Y8730D02*
X11200Y8560D01*
X11169Y8591D02*
X12571D01*
X11200Y8560D02*
X12540D01*
X11129Y8631D02*
X12611D01*
X11030Y9671D02*
X15030D01*
X11030Y9631D02*
X15030D01*
X11030Y9711D02*
X15030D01*
X11030Y9551D02*
X15030D01*
X11030Y9511D02*
X15030D01*
X11030Y9591D02*
X15030D01*
X11030Y9911D02*
X15030D01*
X11030Y9871D02*
X15030D01*
X11030Y9950D02*
X11160Y10080D01*
X11030Y9791D02*
X15030D01*
X11030Y9751D02*
X15030D01*
X11030Y9831D02*
X15030D01*
X11030Y9431D02*
X15030D01*
X11030Y9391D02*
X15030D01*
X11030Y9471D02*
X15030D01*
X11030Y9311D02*
X15030D01*
X11030Y9271D02*
X15030D01*
X11030Y9351D02*
X15030D01*
X11030Y9231D02*
X15030D01*
X11030Y9191D02*
X15030D01*
X11030Y9950D02*
X11030Y8730D01*
X11030Y9111D02*
X15030D01*
X11030Y9071D02*
X15030D01*
X11030Y9151D02*
X15030D01*
X2110Y16350D02*
X2243D01*
X2177D01*
Y16150D01*
X2343D02*
X2410D01*
X2443Y16183D01*
Y16250D01*
X2410Y16283D01*
X2343D01*
X2310Y16250D01*
Y16183D01*
X2343Y16150D01*
X2510Y16083D02*
Y16283D01*
X2610D01*
X2643Y16250D01*
Y16183D01*
X2610Y16150D01*
X2510D01*
X2910Y16350D02*
Y16150D01*
X3043D01*
X3143Y16283D02*
X3210D01*
X3243Y16250D01*
Y16150D01*
X3143D01*
X3110Y16183D01*
X3143Y16217D01*
X3243D01*
X3310Y16283D02*
Y16183D01*
X3343Y16150D01*
X3443D01*
Y16117D01*
X3410Y16083D01*
X3376D01*
X3443Y16150D02*
Y16283D01*
X3610Y16150D02*
X3543D01*
X3510Y16183D01*
Y16250D01*
X3543Y16283D01*
X3610D01*
X3643Y16250D01*
Y16217D01*
X3510D01*
X3709Y16283D02*
Y16150D01*
Y16217D01*
X3743Y16250D01*
X3776Y16283D01*
X3809D01*
D55*
X22644Y12874D02*
Y13860D01*
X26990Y10820D02*
X27474D01*
X27864Y11210D01*
X29220Y10600D02*
X29560Y10260D01*
Y6158D02*
Y10260D01*
X29193Y5791D02*
X29560Y6158D01*
X19540Y6090D02*
Y10310D01*
X19250Y10600D02*
X19540Y10310D01*
X19321Y5871D02*
X19540Y6090D01*
X19150Y5871D02*
X19321D01*
X8125Y5195D02*
X9565D01*
X9580Y5210D01*
X9567Y4610D02*
X9575Y4602D01*
Y3905D02*
Y4602D01*
Y3905D02*
X9590Y3890D01*
X23790Y2890D02*
X26480D01*
X22670Y4010D02*
X23790Y2890D01*
X26904Y3494D02*
X27410Y4000D01*
X26904Y3314D02*
Y3494D01*
X26480Y2890D02*
X26904Y3314D01*
X26940Y12570D02*
X27880D01*
X26536Y12924D02*
X26880Y12580D01*
X26940D01*
X26536Y12924D02*
Y13650D01*
X28210Y11210D02*
Y12240D01*
X27880Y12570D02*
X28210Y12240D01*
X18280Y11210D02*
X18590D01*
X18150Y10850D02*
Y11080D01*
X18280Y11210D01*
X17570Y10610D02*
X17910D01*
X18150Y10850D01*
X8125Y5195D02*
X8154Y5223D01*
X8110Y5180D02*
X8125Y5195D01*
X7805Y6250D02*
X7855Y6200D01*
X8170D01*
X8659Y5711D01*
X17950D01*
X8154Y5223D02*
Y5534D01*
X7907Y5780D02*
X8154Y5534D01*
X2167Y5780D02*
X7907D01*
X2050Y5897D02*
Y6250D01*
Y5897D02*
X2167Y5780D01*
X5965Y6250D02*
X6970D01*
X5850Y6365D02*
X5965Y6250D01*
X5850Y6365D02*
Y6400D01*
X6970Y6250D02*
X7805D01*
X2800Y6300D02*
X3020D01*
X2750Y6250D02*
X2800Y6300D01*
X2750Y6250D02*
X2850D01*
X2050D02*
X2750D01*
X2050Y6250D02*
X2050Y6250D01*
X3020Y6300D02*
X3280Y6560D01*
Y8170D01*
X3950Y8840D02*
X4950D01*
X3280Y8170D02*
X3950Y8840D01*
X11220Y7020D02*
Y8690D01*
X10440Y6240D02*
X11220Y7020D01*
X8660Y6240D02*
X10440D01*
X8660Y6880D02*
X8670Y6870D01*
X8660Y6880D02*
Y8070D01*
X7978Y8212D02*
X8518D01*
X8660Y8070D01*
X18600Y10630D02*
X18630Y10600D01*
X19250D01*
X28190Y10620D02*
X28210Y10600D01*
X28215Y10605D02*
X28260Y10560D01*
X28210Y10610D02*
X28210D01*
X15950Y9445D02*
Y10280D01*
X16280Y10610D02*
X17570D01*
X15950Y10280D02*
X16280Y10610D01*
X28215Y10605D02*
X29215D01*
X29220Y10600D01*
X27864Y11210D02*
X28210D01*
X26590Y9445D02*
Y10420D01*
X26990Y10820D01*
X28210Y11210D02*
X28215Y11205D01*
X29215D01*
X29220Y11200D01*
X19981Y4596D02*
X19995Y4610D01*
X19981Y3889D02*
Y4596D01*
X19967Y3875D02*
X19981Y3889D01*
X30460Y4610D02*
X30464Y4606D01*
Y3879D02*
Y4606D01*
Y3879D02*
X30469Y3875D01*
X19945Y5180D02*
X19990Y5225D01*
X18530Y5180D02*
X19945D01*
X19990Y5225D02*
Y5250D01*
X28950Y5230D02*
X30390D01*
X4950Y6400D02*
Y6610D01*
Y8840D01*
X4890Y6550D02*
X4950Y6610D01*
X22664Y14460D02*
X22675Y14449D01*
X23500D01*
X23511Y14438D01*
X22640Y12870D02*
X22644Y12874D01*
D56*
X1575Y1575D02*
D03*
X29921Y1575D02*
D03*
Y14173D02*
D03*
X1575D02*
D03*
D57*
X21670Y4010D02*
D03*
X22670D02*
D03*
X24410Y4000D02*
D03*
Y5000D02*
D03*
X25410Y4000D02*
D03*
Y5000D02*
D03*
X26410Y4000D02*
D03*
Y5000D02*
D03*
X27410Y4000D02*
D03*
X3600D02*
D03*
Y5000D02*
D03*
X4600Y4000D02*
D03*
Y5000D02*
D03*
X5600Y4000D02*
D03*
Y5000D02*
D03*
X6600Y4000D02*
D03*
X14005D02*
D03*
Y5000D02*
D03*
X15005Y4000D02*
D03*
Y5000D02*
D03*
X16005Y4000D02*
D03*
Y5000D02*
D03*
X17005Y4000D02*
D03*
D58*
X14670Y12660D02*
D03*
D59*
X13670D02*
D03*
D60*
X26536Y13650D02*
D03*
X25552D02*
D03*
X27520D02*
D03*
D61*
X5080Y10338D02*
D03*
Y12700D02*
D03*
D62*
X3249Y11322D02*
D03*
D63*
X17100Y13470D02*
D03*
X19000D02*
D03*
X20900D02*
D03*
D64*
X8730Y14440D02*
D03*
D65*
X10730D02*
D03*
D66*
X27410Y5000D02*
D03*
X6600D02*
D03*
X17005D02*
D03*
D67*
X3780Y7330D02*
D03*
X4180D02*
D03*
X4580D02*
D03*
X3780Y7630D02*
D03*
X4180D02*
D03*
X4580D02*
D03*
Y7930D02*
D03*
X4180D02*
D03*
X3780D02*
D03*
X11230Y9270D02*
D03*
X21810Y8790D02*
D03*
X22125D02*
D03*
X22440D02*
D03*
X21820Y9350D02*
D03*
X22135D02*
D03*
X22450D02*
D03*
X21820Y9070D02*
D03*
X22125D02*
D03*
X22430D02*
D03*
X22450Y9610D02*
D03*
X22145D02*
D03*
X21840D02*
D03*
X22470Y9890D02*
D03*
X22155D02*
D03*
X21840D02*
D03*
X11230Y8710D02*
D03*
X11540D02*
D03*
X11850D02*
D03*
X11540Y9280D02*
D03*
X11850D02*
D03*
X11220Y9000D02*
D03*
X11535D02*
D03*
X11850D02*
D03*
X11860Y9550D02*
D03*
X11545D02*
D03*
X11230D02*
D03*
X11860Y9830D02*
D03*
X11550D02*
D03*
X11240D02*
D03*
X18840Y2310D02*
D03*
X19372D02*
D03*
X19904D02*
D03*
X20436D02*
D03*
X20968D02*
D03*
X21500D02*
D03*
X21490Y1950D02*
D03*
X20958D02*
D03*
X20426D02*
D03*
X19894D02*
D03*
X19362D02*
D03*
X18830D02*
D03*
X21490Y1600D02*
D03*
X20958D02*
D03*
X20426D02*
D03*
X19894D02*
D03*
X19362D02*
D03*
X18830D02*
D03*
X21490Y1220D02*
D03*
X20958D02*
D03*
X20426D02*
D03*
X19894D02*
D03*
X19362D02*
D03*
X18830D02*
D03*
X21500Y860D02*
D03*
X20968D02*
D03*
X20436D02*
D03*
X19904D02*
D03*
X19372D02*
D03*
X18840D02*
D03*
X8140D02*
D03*
X8672D02*
D03*
X9204D02*
D03*
X9736D02*
D03*
X10268D02*
D03*
X10800D02*
D03*
X8130Y1220D02*
D03*
X8662D02*
D03*
X9194D02*
D03*
X9726D02*
D03*
X10258D02*
D03*
X10790D02*
D03*
X8130Y1600D02*
D03*
X8662D02*
D03*
X9194D02*
D03*
X9726D02*
D03*
X10258D02*
D03*
X10790D02*
D03*
X8130Y1950D02*
D03*
X8662D02*
D03*
X9194D02*
D03*
X9726D02*
D03*
X10258D02*
D03*
X10790D02*
D03*
X10800Y2310D02*
D03*
X10268D02*
D03*
X9736D02*
D03*
X9204D02*
D03*
X8672D02*
D03*
X8140D02*
D03*
X26230Y8870D02*
D03*
X25930D02*
D03*
X26210Y9950D02*
D03*
X25910D02*
D03*
X25915Y9680D02*
D03*
X26205D02*
D03*
X25915Y9430D02*
D03*
X26205D02*
D03*
X25925Y9150D02*
D03*
X26215D02*
D03*
X22605Y7450D02*
D03*
X22905D02*
D03*
X23235D02*
D03*
X22605Y7160D02*
D03*
X23235D02*
D03*
X22905D02*
D03*
X22925Y6900D02*
D03*
X23255D02*
D03*
X22625D02*
D03*
X15600Y8850D02*
D03*
X15310D02*
D03*
X15590Y9150D02*
D03*
X15300D02*
D03*
X15580Y9430D02*
D03*
X15290D02*
D03*
X15580Y9680D02*
D03*
X15290D02*
D03*
Y9960D02*
D03*
X15580D02*
D03*
X12000Y6900D02*
D03*
X12630D02*
D03*
X12300D02*
D03*
X11990Y7730D02*
D03*
X12620D02*
D03*
X12290D02*
D03*
X12280Y7160D02*
D03*
X12610D02*
D03*
X11980D02*
D03*
X12610Y7450D02*
D03*
X12280D02*
D03*
X11980D02*
D03*
X22640Y12870D02*
D03*
M02*
