G04*
G04 #@! TF.GenerationSoftware,Altium Limited,Altium Designer,20.0.2 (26)*
G04*
G04 Layer_Color=16711935*
%FSLAX24Y24*%
%MOIN*%
G70*
G01*
G75*
%ADD43R,0.0780X0.0780*%
%ADD44C,0.0710*%
%ADD45R,0.0749X0.0749*%
%ADD46C,0.0749*%
%ADD47C,0.0680*%
%ADD48O,0.1576X0.0671*%
%ADD49O,0.0671X0.1419*%
%ADD50O,0.0867X0.1458*%
%ADD51R,0.0986X0.0986*%
%ADD52C,0.0986*%
%ADD53R,0.0710X0.0710*%
D43*
X1575Y1575D02*
D03*
X29921Y1575D02*
D03*
Y14173D02*
D03*
X1575D02*
D03*
D44*
X21670Y4010D02*
D03*
X22670D02*
D03*
X24410Y4000D02*
D03*
Y5000D02*
D03*
X25410Y4000D02*
D03*
Y5000D02*
D03*
X26410Y4000D02*
D03*
Y5000D02*
D03*
X27410Y4000D02*
D03*
X3600D02*
D03*
Y5000D02*
D03*
X4600Y4000D02*
D03*
Y5000D02*
D03*
X5600Y4000D02*
D03*
Y5000D02*
D03*
X6600Y4000D02*
D03*
X14005D02*
D03*
Y5000D02*
D03*
X15005Y4000D02*
D03*
Y5000D02*
D03*
X16005Y4000D02*
D03*
Y5000D02*
D03*
X17005Y4000D02*
D03*
D45*
X14670Y12660D02*
D03*
D46*
X13670D02*
D03*
D47*
X26536Y13650D02*
D03*
X25552D02*
D03*
X27520D02*
D03*
D48*
X5080Y10338D02*
D03*
Y12700D02*
D03*
D49*
X3249Y11322D02*
D03*
D50*
X17100Y13470D02*
D03*
X19000D02*
D03*
X20900D02*
D03*
D51*
X8730Y14440D02*
D03*
D52*
X10730D02*
D03*
D53*
X27410Y5000D02*
D03*
X6600D02*
D03*
X17005D02*
D03*
M02*
