G04*
G04 #@! TF.GenerationSoftware,Altium Limited,Altium Designer,20.0.2 (26)*
G04*
G04 Layer_Color=128*
%FSLAX24Y24*%
%MOIN*%
G70*
G01*
G75*
%ADD73C,0.0020*%
D73*
X787Y1575D02*
X2362D01*
X1575Y787D02*
Y2362D01*
X29134Y1575D02*
X30709D01*
X29921Y787D02*
Y2362D01*
X29134Y14173D02*
X30709D01*
X29921Y13386D02*
Y14961D01*
X787Y14173D02*
X2362D01*
X1575Y13386D02*
Y14961D01*
X21453Y4010D02*
X21887D01*
X21670Y3793D02*
Y4227D01*
X22453Y4010D02*
X22887D01*
X22670Y3793D02*
Y4227D01*
X14493Y12660D02*
X14847D01*
X14670Y12483D02*
Y12837D01*
X13493Y12660D02*
X13847D01*
X13670Y12483D02*
Y12837D01*
X26386Y13650D02*
X26686D01*
X26536Y13500D02*
Y13800D01*
X25401Y13650D02*
X25701D01*
X25552Y13500D02*
Y13800D01*
X27370Y13650D02*
X27670D01*
X27520Y13500D02*
Y13800D01*
X4903Y10338D02*
X5257D01*
X5080Y10161D02*
Y10515D01*
X4903Y12700D02*
X5257D01*
X5080Y12523D02*
Y12877D01*
X3072Y11322D02*
X3426D01*
X3249Y11145D02*
Y11499D01*
X16864Y13470D02*
X17336D01*
X17100Y13234D02*
Y13706D01*
X18764Y13470D02*
X19236D01*
X19000Y13234D02*
Y13706D01*
X20664Y13470D02*
X21136D01*
X20900Y13234D02*
Y13706D01*
X8494Y14440D02*
X8966D01*
X8730Y14204D02*
Y14676D01*
X10494Y14440D02*
X10966D01*
X10730Y14204D02*
Y14676D01*
X24193Y4000D02*
X24627D01*
X24410Y3783D02*
Y4217D01*
X24193Y5000D02*
X24627D01*
X24410Y4783D02*
Y5217D01*
X25193Y4000D02*
X25627D01*
X25410Y3783D02*
Y4217D01*
X25193Y5000D02*
X25627D01*
X25410Y4783D02*
Y5217D01*
X26193Y4000D02*
X26627D01*
X26410Y3783D02*
Y4217D01*
X26193Y5000D02*
X26627D01*
X26410Y4783D02*
Y5217D01*
X27193Y4000D02*
X27627D01*
X27410Y3783D02*
Y4217D01*
X27193Y5000D02*
X27627D01*
X27410Y4783D02*
Y5217D01*
X3383Y4000D02*
X3817D01*
X3600Y3783D02*
Y4217D01*
X3383Y5000D02*
X3817D01*
X3600Y4783D02*
Y5217D01*
X4383Y4000D02*
X4817D01*
X4600Y3783D02*
Y4217D01*
X4383Y5000D02*
X4817D01*
X4600Y4783D02*
Y5217D01*
X5383Y4000D02*
X5817D01*
X5600Y3783D02*
Y4217D01*
X5383Y5000D02*
X5817D01*
X5600Y4783D02*
Y5217D01*
X6383Y4000D02*
X6817D01*
X6600Y3783D02*
Y4217D01*
X6383Y5000D02*
X6817D01*
X6600Y4783D02*
Y5217D01*
X13788Y4000D02*
X14222D01*
X14005Y3783D02*
Y4217D01*
X13788Y5000D02*
X14222D01*
X14005Y4783D02*
Y5217D01*
X14788Y4000D02*
X15222D01*
X15005Y3783D02*
Y4217D01*
X14788Y5000D02*
X15222D01*
X15005Y4783D02*
Y5217D01*
X15788Y4000D02*
X16222D01*
X16005Y3783D02*
Y4217D01*
X15788Y5000D02*
X16222D01*
X16005Y4783D02*
Y5217D01*
X16788Y4000D02*
X17222D01*
X17005Y3783D02*
Y4217D01*
X16788Y5000D02*
X17222D01*
X17005Y4783D02*
Y5217D01*
X3720Y7330D02*
X3840D01*
X3780Y7270D02*
Y7390D01*
X4120Y7330D02*
X4240D01*
X4180Y7270D02*
Y7390D01*
X4520Y7330D02*
X4640D01*
X4580Y7270D02*
Y7390D01*
X3720Y7630D02*
X3840D01*
X3780Y7570D02*
Y7690D01*
X4120Y7630D02*
X4240D01*
X4180Y7570D02*
Y7690D01*
X4520Y7630D02*
X4640D01*
X4580Y7570D02*
Y7690D01*
X4520Y7930D02*
X4640D01*
X4580Y7870D02*
Y7990D01*
X4120Y7930D02*
X4240D01*
X4180Y7870D02*
Y7990D01*
X3720Y7930D02*
X3840D01*
X3780Y7870D02*
Y7990D01*
X11170Y9270D02*
X11290D01*
X11230Y9210D02*
Y9330D01*
X21750Y8790D02*
X21870D01*
X21810Y8730D02*
Y8850D01*
X22065Y8790D02*
X22185D01*
X22125Y8730D02*
Y8850D01*
X22380Y8790D02*
X22500D01*
X22440Y8730D02*
Y8850D01*
X21760Y9350D02*
X21880D01*
X21820Y9290D02*
Y9410D01*
X22075Y9350D02*
X22195D01*
X22135Y9290D02*
Y9410D01*
X22390Y9350D02*
X22510D01*
X22450Y9290D02*
Y9410D01*
X21760Y9070D02*
X21880D01*
X21820Y9010D02*
Y9130D01*
X22065Y9070D02*
X22185D01*
X22125Y9010D02*
Y9130D01*
X22370Y9070D02*
X22490D01*
X22430Y9010D02*
Y9130D01*
X22390Y9610D02*
X22510D01*
X22450Y9550D02*
Y9670D01*
X22085Y9610D02*
X22205D01*
X22145Y9550D02*
Y9670D01*
X21780Y9610D02*
X21900D01*
X21840Y9550D02*
Y9670D01*
X22410Y9890D02*
X22530D01*
X22470Y9830D02*
Y9950D01*
X22095Y9890D02*
X22215D01*
X22155Y9830D02*
Y9950D01*
X21780Y9890D02*
X21900D01*
X21840Y9830D02*
Y9950D01*
X11170Y8710D02*
X11290D01*
X11230Y8650D02*
Y8770D01*
X11480Y8710D02*
X11600D01*
X11540Y8650D02*
Y8770D01*
X11790Y8710D02*
X11910D01*
X11850Y8650D02*
Y8770D01*
X11480Y9280D02*
X11600D01*
X11540Y9220D02*
Y9340D01*
X11790Y9280D02*
X11910D01*
X11850Y9220D02*
Y9340D01*
X11160Y9000D02*
X11280D01*
X11220Y8940D02*
Y9060D01*
X11475Y9000D02*
X11595D01*
X11535Y8940D02*
Y9060D01*
X11790Y9000D02*
X11910D01*
X11850Y8940D02*
Y9060D01*
X11800Y9550D02*
X11920D01*
X11860Y9490D02*
Y9610D01*
X11485Y9550D02*
X11605D01*
X11545Y9490D02*
Y9610D01*
X11170Y9550D02*
X11290D01*
X11230Y9490D02*
Y9610D01*
X11800Y9830D02*
X11920D01*
X11860Y9770D02*
Y9890D01*
X11490Y9830D02*
X11610D01*
X11550Y9770D02*
Y9890D01*
X11180Y9830D02*
X11300D01*
X11240Y9770D02*
Y9890D01*
X18780Y2310D02*
X18900D01*
X18840Y2250D02*
Y2370D01*
X19312Y2310D02*
X19432D01*
X19372Y2250D02*
Y2370D01*
X19844Y2310D02*
X19964D01*
X19904Y2250D02*
Y2370D01*
X20376Y2310D02*
X20496D01*
X20436Y2250D02*
Y2370D01*
X20908Y2310D02*
X21028D01*
X20968Y2250D02*
Y2370D01*
X21440Y2310D02*
X21560D01*
X21500Y2250D02*
Y2370D01*
X21430Y1950D02*
X21550D01*
X21490Y1890D02*
Y2010D01*
X20898Y1950D02*
X21018D01*
X20958Y1890D02*
Y2010D01*
X20366Y1950D02*
X20486D01*
X20426Y1890D02*
Y2010D01*
X19834Y1950D02*
X19954D01*
X19894Y1890D02*
Y2010D01*
X19302Y1950D02*
X19422D01*
X19362Y1890D02*
Y2010D01*
X18770Y1950D02*
X18890D01*
X18830Y1890D02*
Y2010D01*
X21430Y1600D02*
X21550D01*
X21490Y1540D02*
Y1660D01*
X20898Y1600D02*
X21018D01*
X20958Y1540D02*
Y1660D01*
X20366Y1600D02*
X20486D01*
X20426Y1540D02*
Y1660D01*
X19834Y1600D02*
X19954D01*
X19894Y1540D02*
Y1660D01*
X19302Y1600D02*
X19422D01*
X19362Y1540D02*
Y1660D01*
X18770Y1600D02*
X18890D01*
X18830Y1540D02*
Y1660D01*
X21430Y1220D02*
X21550D01*
X21490Y1160D02*
Y1280D01*
X20898Y1220D02*
X21018D01*
X20958Y1160D02*
Y1280D01*
X20366Y1220D02*
X20486D01*
X20426Y1160D02*
Y1280D01*
X19834Y1220D02*
X19954D01*
X19894Y1160D02*
Y1280D01*
X19302Y1220D02*
X19422D01*
X19362Y1160D02*
Y1280D01*
X18770Y1220D02*
X18890D01*
X18830Y1160D02*
Y1280D01*
X21440Y860D02*
X21560D01*
X21500Y800D02*
Y920D01*
X20908Y860D02*
X21028D01*
X20968Y800D02*
Y920D01*
X20376Y860D02*
X20496D01*
X20436Y800D02*
Y920D01*
X19844Y860D02*
X19964D01*
X19904Y800D02*
Y920D01*
X19312Y860D02*
X19432D01*
X19372Y800D02*
Y920D01*
X18780Y860D02*
X18900D01*
X18840Y800D02*
Y920D01*
X8080Y860D02*
X8200D01*
X8140Y800D02*
Y920D01*
X8612Y860D02*
X8732D01*
X8672Y800D02*
Y920D01*
X9144Y860D02*
X9264D01*
X9204Y800D02*
Y920D01*
X9676Y860D02*
X9796D01*
X9736Y800D02*
Y920D01*
X10208Y860D02*
X10328D01*
X10268Y800D02*
Y920D01*
X10740Y860D02*
X10860D01*
X10800Y800D02*
Y920D01*
X8070Y1220D02*
X8190D01*
X8130Y1160D02*
Y1280D01*
X8602Y1220D02*
X8722D01*
X8662Y1160D02*
Y1280D01*
X9134Y1220D02*
X9254D01*
X9194Y1160D02*
Y1280D01*
X9666Y1220D02*
X9786D01*
X9726Y1160D02*
Y1280D01*
X10198Y1220D02*
X10318D01*
X10258Y1160D02*
Y1280D01*
X10730Y1220D02*
X10850D01*
X10790Y1160D02*
Y1280D01*
X8070Y1600D02*
X8190D01*
X8130Y1540D02*
Y1660D01*
X8602Y1600D02*
X8722D01*
X8662Y1540D02*
Y1660D01*
X9134Y1600D02*
X9254D01*
X9194Y1540D02*
Y1660D01*
X9666Y1600D02*
X9786D01*
X9726Y1540D02*
Y1660D01*
X10198Y1600D02*
X10318D01*
X10258Y1540D02*
Y1660D01*
X10730Y1600D02*
X10850D01*
X10790Y1540D02*
Y1660D01*
X8070Y1950D02*
X8190D01*
X8130Y1890D02*
Y2010D01*
X8602Y1950D02*
X8722D01*
X8662Y1890D02*
Y2010D01*
X9134Y1950D02*
X9254D01*
X9194Y1890D02*
Y2010D01*
X9666Y1950D02*
X9786D01*
X9726Y1890D02*
Y2010D01*
X10198Y1950D02*
X10318D01*
X10258Y1890D02*
Y2010D01*
X10730Y1950D02*
X10850D01*
X10790Y1890D02*
Y2010D01*
X10740Y2310D02*
X10860D01*
X10800Y2250D02*
Y2370D01*
X10208Y2310D02*
X10328D01*
X10268Y2250D02*
Y2370D01*
X9676Y2310D02*
X9796D01*
X9736Y2250D02*
Y2370D01*
X9144Y2310D02*
X9264D01*
X9204Y2250D02*
Y2370D01*
X8612Y2310D02*
X8732D01*
X8672Y2250D02*
Y2370D01*
X8080Y2310D02*
X8200D01*
X8140Y2250D02*
Y2370D01*
X26170Y8870D02*
X26290D01*
X26230Y8810D02*
Y8930D01*
X25870Y8870D02*
X25990D01*
X25930Y8810D02*
Y8930D01*
X26150Y9950D02*
X26270D01*
X26210Y9890D02*
Y10010D01*
X25850Y9950D02*
X25970D01*
X25910Y9890D02*
Y10010D01*
X25855Y9680D02*
X25975D01*
X25915Y9620D02*
Y9740D01*
X26145Y9680D02*
X26265D01*
X26205Y9620D02*
Y9740D01*
X25855Y9430D02*
X25975D01*
X25915Y9370D02*
Y9490D01*
X26145Y9430D02*
X26265D01*
X26205Y9370D02*
Y9490D01*
X25865Y9150D02*
X25985D01*
X25925Y9090D02*
Y9210D01*
X26155Y9150D02*
X26275D01*
X26215Y9090D02*
Y9210D01*
X22545Y7450D02*
X22665D01*
X22605Y7390D02*
Y7510D01*
X22845Y7450D02*
X22965D01*
X22905Y7390D02*
Y7510D01*
X23175Y7450D02*
X23295D01*
X23235Y7390D02*
Y7510D01*
X22545Y7160D02*
X22665D01*
X22605Y7100D02*
Y7220D01*
X23175Y7160D02*
X23295D01*
X23235Y7100D02*
Y7220D01*
X22845Y7160D02*
X22965D01*
X22905Y7100D02*
Y7220D01*
X22865Y6900D02*
X22985D01*
X22925Y6840D02*
Y6960D01*
X23195Y6900D02*
X23315D01*
X23255Y6840D02*
Y6960D01*
X22565Y6900D02*
X22685D01*
X22625Y6840D02*
Y6960D01*
X15540Y8850D02*
X15660D01*
X15600Y8790D02*
Y8910D01*
X15250Y8850D02*
X15370D01*
X15310Y8790D02*
Y8910D01*
X15530Y9150D02*
X15650D01*
X15590Y9090D02*
Y9210D01*
X15240Y9150D02*
X15360D01*
X15300Y9090D02*
Y9210D01*
X15520Y9430D02*
X15640D01*
X15580Y9370D02*
Y9490D01*
X15230Y9430D02*
X15350D01*
X15290Y9370D02*
Y9490D01*
X15520Y9680D02*
X15640D01*
X15580Y9620D02*
Y9740D01*
X15230Y9680D02*
X15350D01*
X15290Y9620D02*
Y9740D01*
X15230Y9960D02*
X15350D01*
X15290Y9900D02*
Y10020D01*
X15520Y9960D02*
X15640D01*
X15580Y9900D02*
Y10020D01*
X11940Y6900D02*
X12060D01*
X12000Y6840D02*
Y6960D01*
X12570Y6900D02*
X12690D01*
X12630Y6840D02*
Y6960D01*
X12240Y6900D02*
X12360D01*
X12300Y6840D02*
Y6960D01*
X11930Y7730D02*
X12050D01*
X11990Y7670D02*
Y7790D01*
X12560Y7730D02*
X12680D01*
X12620Y7670D02*
Y7790D01*
X12230Y7730D02*
X12350D01*
X12290Y7670D02*
Y7790D01*
X12220Y7160D02*
X12340D01*
X12280Y7100D02*
Y7220D01*
X12550Y7160D02*
X12670D01*
X12610Y7100D02*
Y7220D01*
X11920Y7160D02*
X12040D01*
X11980Y7100D02*
Y7220D01*
X12550Y7450D02*
X12670D01*
X12610Y7390D02*
Y7510D01*
X12220Y7450D02*
X12340D01*
X12280Y7390D02*
Y7510D01*
X11920Y7450D02*
X12040D01*
X11980Y7390D02*
Y7510D01*
X22580Y12870D02*
X22700D01*
X22640Y12810D02*
Y12930D01*
M02*
