G04*
G04 #@! TF.GenerationSoftware,Altium Limited,Altium Designer,20.0.2 (26)*
G04*
G04 Layer_Color=255*
%FSLAX24Y24*%
%MOIN*%
G70*
G01*
G75*
%ADD56R,0.0700X0.0700*%
%ADD57C,0.0630*%
%ADD58R,0.0669X0.0669*%
%ADD59C,0.0669*%
%ADD60C,0.0600*%
%ADD61O,0.1496X0.0591*%
%ADD62O,0.0591X0.1339*%
%ADD63O,0.0787X0.1378*%
%ADD64R,0.0906X0.0906*%
%ADD65C,0.0906*%
%ADD66R,0.0630X0.0630*%
D56*
X1575Y1575D02*
D03*
X29921Y1575D02*
D03*
Y14173D02*
D03*
X1575D02*
D03*
D57*
X21670Y4010D02*
D03*
X22670D02*
D03*
X24410Y4000D02*
D03*
Y5000D02*
D03*
X25410Y4000D02*
D03*
Y5000D02*
D03*
X26410Y4000D02*
D03*
Y5000D02*
D03*
X27410Y4000D02*
D03*
X3600D02*
D03*
Y5000D02*
D03*
X4600Y4000D02*
D03*
Y5000D02*
D03*
X5600Y4000D02*
D03*
Y5000D02*
D03*
X6600Y4000D02*
D03*
X14005D02*
D03*
Y5000D02*
D03*
X15005Y4000D02*
D03*
Y5000D02*
D03*
X16005Y4000D02*
D03*
Y5000D02*
D03*
X17005Y4000D02*
D03*
D58*
X14670Y12660D02*
D03*
D59*
X13670D02*
D03*
D60*
X26536Y13650D02*
D03*
X25552D02*
D03*
X27520D02*
D03*
D61*
X5080Y10338D02*
D03*
Y12700D02*
D03*
D62*
X3249Y11322D02*
D03*
D63*
X17100Y13470D02*
D03*
X19000D02*
D03*
X20900D02*
D03*
D64*
X8730Y14440D02*
D03*
D65*
X10730D02*
D03*
D66*
X27410Y5000D02*
D03*
X6600D02*
D03*
X17005D02*
D03*
M02*
