G04*
G04 #@! TF.GenerationSoftware,Altium Limited,Altium Designer,20.0.2 (26)*
G04*
G04 Layer_Color=8421504*
%FSLAX24Y24*%
%MOIN*%
G70*
G01*
G75*
G04:AMPARAMS|DCode=17|XSize=30mil|YSize=30mil|CornerRadius=7.5mil|HoleSize=0mil|Usage=FLASHONLY|Rotation=270.000|XOffset=0mil|YOffset=0mil|HoleType=Round|Shape=RoundedRectangle|*
%AMROUNDEDRECTD17*
21,1,0.0300,0.0150,0,0,270.0*
21,1,0.0150,0.0300,0,0,270.0*
1,1,0.0150,-0.0075,-0.0075*
1,1,0.0150,-0.0075,0.0075*
1,1,0.0150,0.0075,0.0075*
1,1,0.0150,0.0075,-0.0075*
%
%ADD17ROUNDEDRECTD17*%
%ADD18R,0.0630X0.1181*%
%ADD19R,0.2283X0.2441*%
%ADD20R,0.1378X0.0554*%
%ADD21R,0.0315X0.0315*%
G04:AMPARAMS|DCode=22|XSize=30mil|YSize=30mil|CornerRadius=7.5mil|HoleSize=0mil|Usage=FLASHONLY|Rotation=180.000|XOffset=0mil|YOffset=0mil|HoleType=Round|Shape=RoundedRectangle|*
%AMROUNDEDRECTD22*
21,1,0.0300,0.0150,0,0,180.0*
21,1,0.0150,0.0300,0,0,180.0*
1,1,0.0150,-0.0075,0.0075*
1,1,0.0150,0.0075,0.0075*
1,1,0.0150,0.0075,-0.0075*
1,1,0.0150,-0.0075,-0.0075*
%
%ADD22ROUNDEDRECTD22*%
%ADD23R,0.0638X0.0806*%
%ADD24O,0.0224X0.0768*%
%ADD25R,0.1378X0.0472*%
%ADD26R,0.0472X0.1378*%
%ADD27R,0.0974X0.1307*%
%ADD28R,0.1380X0.0850*%
%ADD29R,0.0430X0.0850*%
G36*
X29639Y5417D02*
Y4942D01*
X29599Y4903D01*
X29224D01*
X29184Y4942D01*
Y5052D01*
X29145Y5091D01*
X28755D01*
X28716Y5052D01*
Y4942D01*
X28676Y4903D01*
X28301D01*
X28261Y4942D01*
Y5417D01*
X28301Y5457D01*
X29599D01*
X29639Y5417D01*
D02*
G37*
G36*
X19219D02*
Y4942D01*
X19179Y4903D01*
X18804D01*
X18764Y4942D01*
Y5052D01*
X18725Y5091D01*
X18335D01*
X18296Y5052D01*
Y4942D01*
X18256Y4903D01*
X17881D01*
X17841Y4942D01*
Y5417D01*
X17881Y5457D01*
X19179D01*
X19219Y5417D01*
D02*
G37*
G36*
X8799D02*
Y4942D01*
X8759Y4903D01*
X8384D01*
X8344Y4942D01*
Y5052D01*
X8305Y5091D01*
X7915D01*
X7876Y5052D01*
Y4942D01*
X7836Y4903D01*
X7461D01*
X7421Y4942D01*
Y5417D01*
X7461Y5457D01*
X8759D01*
X8799Y5417D01*
D02*
G37*
G36*
X29639Y3958D02*
Y3483D01*
X29599Y3443D01*
X28301D01*
X28261Y3483D01*
Y3958D01*
X28301Y3997D01*
X28676D01*
X28716Y3958D01*
Y3848D01*
X28755Y3809D01*
X29145D01*
X29184Y3848D01*
Y3958D01*
X29224Y3997D01*
X29599D01*
X29639Y3958D01*
D02*
G37*
G36*
X19219D02*
Y3483D01*
X19179Y3443D01*
X17881D01*
X17841Y3483D01*
Y3958D01*
X17881Y3997D01*
X18256D01*
X18296Y3958D01*
Y3848D01*
X18335Y3809D01*
X18725D01*
X18764Y3848D01*
Y3958D01*
X18804Y3997D01*
X19179D01*
X19219Y3958D01*
D02*
G37*
G36*
X8799D02*
Y3483D01*
X8759Y3443D01*
X7461D01*
X7421Y3483D01*
Y3958D01*
X7461Y3997D01*
X7836D01*
X7876Y3958D01*
Y3848D01*
X7915Y3809D01*
X8305D01*
X8344Y3848D01*
Y3958D01*
X8384Y3997D01*
X8759D01*
X8799Y3958D01*
D02*
G37*
D17*
X8660Y6840D02*
D03*
Y6240D02*
D03*
X28210Y10610D02*
D03*
Y11210D02*
D03*
X29220Y10600D02*
D03*
Y11200D02*
D03*
X18590Y11210D02*
D03*
Y10610D02*
D03*
X17570Y11210D02*
D03*
Y10610D02*
D03*
X2750Y6850D02*
D03*
Y6250D02*
D03*
X2050D02*
D03*
Y6850D02*
D03*
X9567Y5210D02*
D03*
Y4610D02*
D03*
X7805Y6850D02*
D03*
Y6250D02*
D03*
X6970Y6850D02*
D03*
Y6250D02*
D03*
X20013Y5210D02*
D03*
Y4610D02*
D03*
X30460D02*
D03*
Y5210D02*
D03*
X24810Y10451D02*
D03*
Y9851D02*
D03*
X14161Y10451D02*
D03*
Y9851D02*
D03*
X22664Y14460D02*
D03*
Y13860D02*
D03*
D18*
X7978Y8212D02*
D03*
X9782Y8212D02*
D03*
D19*
X8880Y10908D02*
D03*
D20*
X28950Y5180D02*
D03*
Y3720D02*
D03*
X8110Y5180D02*
D03*
Y3720D02*
D03*
X18530Y5180D02*
D03*
Y3720D02*
D03*
D21*
X9585Y3245D02*
D03*
X9583Y3875D02*
D03*
X20028Y3245D02*
D03*
X20026Y3875D02*
D03*
X30471Y3245D02*
D03*
X30469Y3875D02*
D03*
X23511Y14438D02*
D03*
X23514Y13809D02*
D03*
D22*
X19850Y6350D02*
D03*
X19250D02*
D03*
X29270D02*
D03*
X29870D02*
D03*
D23*
X12304Y5104D02*
D03*
X12296Y6996D02*
D03*
X22896D02*
D03*
X22904Y5104D02*
D03*
D24*
X27090Y11575D02*
D03*
X26590D02*
D03*
X26090D02*
D03*
X25590D02*
D03*
X27090Y9445D02*
D03*
X26590D02*
D03*
X26090D02*
D03*
X25590D02*
D03*
X16450Y11575D02*
D03*
X15950D02*
D03*
X15450D02*
D03*
X14950D02*
D03*
X16450Y9445D02*
D03*
X15950D02*
D03*
X15450D02*
D03*
X14950D02*
D03*
D25*
X30591Y8270D02*
D03*
X28489D02*
D03*
X18539D02*
D03*
X20641D02*
D03*
D26*
X22940Y9249D02*
D03*
Y11351D02*
D03*
X12300Y9249D02*
D03*
Y11351D02*
D03*
D27*
X24659Y7210D02*
D03*
X27141D02*
D03*
X16771D02*
D03*
X14289D02*
D03*
D28*
X4950Y8840D02*
D03*
D29*
X5850Y6400D02*
D03*
X4950D02*
D03*
X4040D02*
D03*
M02*
